<?xml version="1.0" standalone="no"?>
<!DOCTYPE svg PUBLIC "-//W3C//DTD SVG 20010904//EN"
 "http://www.w3.org/TR/2001/REC-SVG-20010904/DTD/svg10.dtd">
<svg version="1.0" xmlns="http://www.w3.org/2000/svg"
 width="3832.000000pt" height="803.000000pt" viewBox="0 0 3832.000000 803.000000"
 preserveAspectRatio="xMidYMid meet">

<g transform="translate(0.000000,803.000000) scale(0.100000,-0.100000)"
fill="#000000" stroke="none">
<path d="M34400 8024 c-368 -42 -637 -118 -915 -258 -77 -39 -313 -176 -525
-305 -428 -261 -522 -313 -660 -367 -228 -88 -442 -131 -702 -141 l-168 -6 0
-368 0 -368 -270 -247 c-148 -135 -270 -249 -270 -253 0 -4 30 -45 68 -92 166
-208 220 -326 302 -664 88 -359 113 -554 180 -1395 53 -665 64 -742 134 -986
165 -570 564 -1114 1049 -1429 114 -74 272 -152 427 -210 349 -132 616 -283
1100 -625 91 -64 229 -161 308 -214 l144 -98 121 83 c67 45 203 140 302 209
504 355 796 522 1130 646 330 122 592 296 848 563 370 387 622 889 701 1401 9
58 39 387 66 731 59 748 88 973 170 1314 78 329 146 476 318 688 l65 81 -30
26 c-17 14 -141 126 -277 249 l-246 224 0 367 0 367 -167 6 c-335 12 -589 75
-864 213 -59 29 -286 162 -505 295 -220 133 -445 266 -501 295 -221 114 -521
210 -778 249 -104 16 -471 29 -555 19z m371 -755 c212 -21 412 -79 599 -173
58 -29 285 -161 504 -295 418 -254 568 -335 751 -407 311 -121 597 -179 936
-191 l187 -6 -86 -105 c-230 -284 -338 -515 -447 -955 -96 -390 -130 -644
-195 -1456 -50 -635 -59 -709 -105 -876 -131 -481 -528 -964 -927 -1128 -34
-14 -121 -49 -193 -76 -319 -124 -712 -348 -1122 -639 l-71 -51 -109 76 c-396
279 -769 491 -1068 607 -276 108 -301 120 -430 207 -288 193 -567 571 -684
929 -61 185 -78 306 -126 930 -48 611 -69 815 -111 1065 -68 407 -173 774
-284 995 -59 118 -248 389 -310 445 -11 10 -20 21 -20 25 0 4 80 10 178 13
412 15 806 115 1167 297 72 36 303 171 515 299 212 129 426 256 475 282 201
106 384 160 660 192 66 8 219 6 316 -4z"/>
<path d="M35040 5444 c-340 -43 -626 -180 -855 -409 -194 -194 -316 -415 -382
-695 -30 -130 -42 -369 -24 -505 81 -620 516 -1095 1124 -1227 136 -30 427
-32 557 -5 171 36 338 99 465 177 337 206 564 525 656 925 32 141 37 404 11
560 -53 307 -180 554 -396 771 -205 204 -425 323 -718 385 -91 20 -355 33
-438 23z m327 -649 c268 -63 484 -283 559 -570 27 -102 25 -322 -4 -427 -61
-226 -212 -413 -407 -508 -108 -53 -197 -72 -325 -72 -349 2 -635 231 -731
587 -31 113 -31 317 -1 429 76 276 283 487 546 556 89 24 274 26 363 5z"/>
<path d="M32860 4015 l0 -1415 325 0 325 0 0 1415 0 1415 -325 0 -325 0 0
-1415z"/>
<path d="M2175 6360 c-1117 -82 -2013 -944 -2155 -2075 -17 -131 -14 -428 5
-570 48 -359 181 -717 376 -1008 177 -264 412 -498 674 -669 547 -359 1224
-465 1897 -297 579 144 1051 508 1337 1030 l42 77 -377 206 c-207 114 -377
206 -378 204 -201 -316 -363 -473 -610 -593 -217 -105 -365 -138 -621 -139
-263 -1 -403 31 -630 144 -396 196 -685 575 -787 1031 -20 91 -23 131 -23 314
0 234 10 300 70 481 75 225 191 411 365 584 207 207 433 331 712 392 148 32
426 32 578 -1 140 -30 235 -63 354 -124 224 -114 417 -297 555 -527 18 -30 35
-56 36 -58 3 -3 735 405 747 417 11 10 -105 207 -192 323 -349 471 -869 767
-1476 842 -156 19 -362 26 -499 16z"/>
<path d="M6815 6364 c-16 -2 -73 -9 -125 -15 -310 -35 -643 -146 -918 -305
-392 -228 -722 -580 -916 -978 -264 -540 -316 -1130 -152 -1727 226 -823 861
-1444 1658 -1623 847 -190 1671 108 2121 767 l47 68 0 -390 0 -391 430 0 430
0 0 1219 c0 1307 0 1306 -51 1556 -45 219 -152 492 -269 688 -379 637 -1026
1040 -1799 1122 -121 13 -376 18 -456 9z m447 -873 c593 -102 1058 -557 1190
-1164 30 -138 33 -464 5 -600 -126 -621 -601 -1083 -1217 -1183 -127 -21 -358
-20 -485 1 -281 47 -553 182 -763 381 -388 365 -552 913 -430 1439 95 411 370
771 748 977 134 73 317 134 477 157 113 17 354 12 475 -8z"/>
<path d="M27095 6363 c-1033 -85 -1874 -782 -2121 -1759 -55 -221 -69 -331
-69 -584 0 -228 8 -317 46 -505 129 -644 506 -1199 1040 -1531 459 -284 1046
-389 1584 -283 245 48 550 177 740 313 167 120 345 302 459 469 l46 68 0 -390
0 -391 430 0 431 0 -4 1273 c-3 1263 -3 1273 -25 1387 -69 356 -178 636 -351
896 -390 588 -1004 951 -1740 1029 -121 13 -358 17 -466 8z m457 -872 c589
-101 1061 -561 1189 -1159 26 -124 36 -381 20 -507 -88 -665 -578 -1175 -1231
-1281 -127 -21 -358 -20 -485 1 -298 50 -573 192 -791 409 -118 118 -188 210
-261 344 -356 652 -173 1487 422 1927 193 143 428 240 662 274 113 17 354 12
475 -8z"/>
<path d="M22270 6354 c-374 -25 -702 -127 -964 -301 -122 -81 -301 -255 -373
-363 -138 -207 -201 -401 -210 -650 -21 -566 229 -937 784 -1158 178 -71 380
-127 782 -217 494 -110 652 -161 801 -260 123 -82 187 -186 197 -320 25 -322
-221 -553 -657 -620 -125 -20 -375 -19 -509 1 -353 51 -620 232 -787 531 -36
63 -36 63 -63 49 -45 -24 -666 -368 -670 -372 -6 -6 103 -183 160 -259 278
-372 674 -608 1174 -699 223 -41 578 -53 775 -27 603 81 1058 338 1312 742
111 177 167 366 175 594 20 577 -254 953 -859 1179 -154 57 -340 108 -695 190
-183 42 -380 90 -438 107 -299 86 -465 190 -537 337 -31 63 -33 73 -33 178 0
110 0 111 43 196 83 170 227 273 470 340 107 30 433 33 560 5 220 -49 373
-129 504 -263 72 -74 90 -98 136 -178 l38 -64 345 195 c189 107 346 197 348
198 6 7 -60 115 -120 196 -283 381 -713 623 -1234 693 -115 15 -360 26 -455
20z"/>
<path d="M12065 6304 c-907 -123 -1523 -736 -1699 -1689 -51 -272 -51 -284
-51 -1640 l0 -1270 455 0 455 0 5 1255 c6 1344 4 1300 56 1505 164 653 601
1008 1209 982 322 -14 568 -118 775 -326 165 -166 281 -382 350 -648 56 -221
53 -145 59 -1508 l6 -1260 452 -3 452 -2 4 1217 c3 1072 6 1231 20 1329 99
659 430 1067 957 1181 124 26 390 24 520 -4 220 -48 382 -136 540 -293 216
-214 336 -465 407 -850 16 -86 18 -212 23 -1305 l5 -1210 453 -3 452 -2 0
1244 c0 779 -4 1283 -10 1347 -82 818 -473 1444 -1097 1758 -160 80 -388 152
-593 187 -128 21 -494 30 -631 15 -415 -47 -779 -211 -1053 -472 -171 -164
-295 -340 -387 -552 l-47 -107 -38 96 c-73 186 -177 346 -324 498 -154 160
-297 263 -495 357 -186 87 -427 154 -647 178 -132 15 -460 12 -583 -5z"/>
<path d="M18970 4015 l0 -2255 453 2 452 3 0 2250 0 2250 -452 3 -453 2 0
-2255z"/>
</g>
</svg>
