<svg xmlns="http://www.w3.org/2000/svg" xmlns:v="https://svgstorm.com"
viewBox = "0 0 3497 732"
width="3497"
height="732">
<g fill="None" fill-opacity="0.0" stroke="#000000" stroke-opacity="0.00" stroke-width="0.3"><path d="
M 0.00 343.00 
C 6.68 293.02 27.98 248.23 63.77 211.77 C 99.56 175.31 148.29 156.91 199.00 152.00
C 208.07 151.12 219.22 150.08 229.00 151.00
C 244.47 152.45 265.08 154.68 279.22 159.78 C 293.36 164.87 309.23 168.65 321.08 176.92 C 332.92 185.19 347.68 191.10 355.00 203.00
C 359.54 207.37 363.74 211.39 368.00 216.00
C 375.27 223.86 380.90 231.34 386.77 240.23 C 392.64 249.12 401.51 260.01 389.25 265.25 C 377.00 270.50 372.25 274.69 361.31 280.31 C 350.36 285.92 344.70 290.20 334.25 296.25 C 323.81 302.31 321.25 285.91 314.23 278.77 C 307.21 271.63 301.45 263.31 292.75 257.25 C 284.06 251.19 276.04 245.58 265.77 241.23 C 255.50 236.88 243.46 234.19 231.93 232.07 C 220.39 229.96 203.62 231.10 192.33 233.33 C 181.04 235.56 169.75 238.81 159.92 243.92 C 150.10 249.04 142.17 253.75 133.75 260.75 C 125.33 267.76 119.09 274.27 112.75 282.75 C 106.41 291.22 100.59 299.20 96.25 309.25 C 91.90 319.30 88.76 330.82 86.02 342.02 C 83.29 353.23 83.49 370.41 85.00 382.00 C 86.51 393.59 90.38 405.42 93.98 416.02 C 97.57 426.63 103.11 435.29 109.08 443.92 C 115.05 452.55 120.59 459.69 128.75 467.25 C 136.92 474.81 144.63 479.02 154.03 484.97 C 163.42 490.93 173.82 494.49 185.01 496.99 C 196.20 499.50 210.22 502.92 222.00 501.00 C 233.79 499.09 247.93 498.69 258.67 494.67 C 269.41 490.65 277.93 485.64 286.70 479.70 C 295.47 473.75 302.76 467.56 309.75 459.75 C 316.74 451.94 322.80 442.29 327.00 433.00
C 338.62 437.74 346.40 444.62 358.08 449.92 C 369.75 455.23 376.54 461.48 389.23 466.77 C 401.92 472.06 391.59 485.88 385.08 495.08 C 378.56 504.27 371.92 513.38 363.75 521.75 C 355.57 530.11 347.55 537.22 337.92 543.92 C 328.28 550.62 318.82 556.50 307.77 561.77 C 296.73 567.05 284.50 570.43 271.99 573.99 C 259.49 577.56 242.64 579.43 229.00 580.00
C 217.68 580.77 206.37 580.90 195.00 580.00
C 94.45 572.02 10.34 489.33 0.00 389.00
L 0.00 732.00
L 3155.00 732.00
C 3144.50 723.38 3132.88 717.23 3121.77 709.23 C 3110.66 701.23 3100.54 693.16 3089.25 685.75 C 3077.95 678.34 3066.08 671.47 3054.25 664.75 C 3042.43 658.02 3028.20 652.15 3015.32 647.68 C 3002.45 643.21 2989.24 636.35 2977.92 629.08 C 2966.60 621.81 2955.93 614.52 2946.25 604.75 C 2936.57 594.98 2927.93 586.53 2919.75 575.25 C 2911.57 563.97 2904.55 553.60 2898.08 540.92 C 2891.61 528.24 2885.41 516.25 2881.22 501.78 C 2877.03 487.30 2873.40 471.05 2872.00 455.00 C 2870.60 438.95 2870.31 419.28 2868.01 402.99 C 2865.70 386.70 2866.69 367.11 2864.00 351.00 C 2861.31 334.89 2860.93 317.37 2857.01 301.99 C 2853.08 286.62 2851.63 271.71 2845.68 257.32 C 2839.73 242.93 2837.58 233.46 2825.25 221.75 C 2812.92 210.05 2827.05 201.19 2837.75 192.75 C 2848.44 184.30 2855.73 173.35 2867.00 166.00
C 2867.00 143.00 2867.00 120.00 2867.00 97.00
C 2969.44 107.28 3031.95 9.09 3128.00 0.00
L 0.00 0.00
L 0.00 343.00
M 470.00 228.00 
C 470.92 226.86 471.85 225.23 473.00 224.00
C 478.06 218.57 482.16 211.21 489.00 208.00
C 489.20 207.68 489.79 207.27 490.00 207.00
C 504.73 188.08 524.53 180.88 545.70 169.70 C 566.87 158.51 595.64 153.49 621.01 151.01 C 646.37 148.52 682.63 153.07 706.07 159.93 C 729.52 166.78 750.12 176.51 769.75 190.25 C 789.37 204.00 801.44 217.18 816.30 236.70 C 831.17 256.21 840.21 273.89 847.98 299.02 C 855.74 324.16 858.85 353.76 858.00 383.00 C 857.14 412.24 858.45 446.76 858.00 477.00 C 857.55 507.24 858.34 540.49 858.00 571.00
C 831.33 571.00 804.67 571.00 778.00 571.00
C 777.33 548.50 779.33 524.68 777.00 503.00
C 715.27 601.02 569.16 603.49 488.75 528.25 C 408.34 453.01 393.93 312.16 470.00 228.00
M 2494.00 581.00 
C 2484.77 581.87 2474.26 581.63 2465.00 581.00
C 2433.57 578.86 2396.97 569.25 2370.92 552.08 C 2344.88 534.90 2326.39 518.15 2308.25 491.75 C 2290.11 465.35 2280.10 433.76 2274.67 401.33 C 2269.25 368.90 2272.23 322.89 2283.93 292.93 C 2295.63 262.96 2308.26 239.15 2331.25 216.25 C 2354.24 193.34 2374.68 179.05 2404.23 166.23 C 2433.78 153.41 2478.32 148.78 2511.67 151.33 C 2545.02 153.88 2578.66 163.84 2606.23 180.77 C 2633.80 197.70 2651.80 212.11 2670.75 239.25 C 2689.71 266.39 2701.00 292.67 2706.33 327.67 C 2711.66 362.67 2709.87 408.49 2710.00 447.00 C 2710.13 485.51 2709.90 531.78 2710.00 571.00
C 2683.33 571.00 2656.67 571.00 2630.00 571.00
C 2629.34 548.17 2631.33 524.01 2629.00 502.00
C 2600.55 549.29 2547.78 576.82 2494.00 581.00
M 2062.00 579.00 
C 2051.36 579.72 2040.64 579.84 2030.00 579.00
C 2018.17 578.06 2003.32 577.82 1992.32 574.68 C 1981.33 571.54 1970.39 568.95 1960.32 564.68 C 1950.25 560.41 1941.92 555.55 1932.92 550.08 C 1923.91 544.61 1917.61 538.02 1910.08 530.92 C 1902.56 523.82 1895.98 516.11 1890.23 507.77 C 1884.48 499.43 1875.05 488.26 1886.07 484.07 C 1897.09 479.88 1902.53 472.26 1912.70 468.70 C 1922.86 465.13 1930.05 456.16 1940.03 454.03 C 1950.00 451.89 1951.64 468.52 1959.25 474.75 C 1966.86 480.98 1972.89 489.93 1982.70 494.30 C 1992.51 498.68 2002.70 503.92 2014.00 505.00 C 2025.30 506.08 2040.94 509.63 2052.67 507.67 C 2064.40 505.71 2077.50 505.67 2087.69 500.69 C 2097.89 495.72 2106.68 492.03 2113.75 483.75 C 2120.81 475.47 2125.15 463.67 2125.00 453.00 C 2124.85 442.33 2119.09 432.13 2110.75 425.25 C 2102.41 418.37 2093.25 414.17 2082.78 411.22 C 2072.31 408.27 2061.29 403.37 2050.00 402.00 C 2038.71 400.64 2026.03 396.41 2014.93 394.07 C 2003.83 391.74 1991.78 389.46 1981.32 385.68 C 1970.87 381.90 1960.72 379.10 1951.25 373.75 C 1941.79 368.39 1933.04 365.73 1924.77 358.23 C 1916.50 350.73 1910.98 344.99 1905.08 335.92 C 1899.18 326.85 1895.82 316.16 1892.67 305.33 C 1889.52 294.49 1889.79 277.84 1890.00 266.00 C 1890.21 254.16 1895.27 243.39 1898.92 232.92 C 1902.58 222.46 1907.71 214.89 1914.25 206.25 C 1920.79 197.60 1927.55 191.66 1936.08 185.08 C 1944.61 178.49 1952.04 173.46 1962.08 169.08 C 1972.11 164.69 1981.45 160.51 1992.68 157.68 C 2003.90 154.85 2016.91 153.26 2029.07 152.07 C 2041.23 150.88 2057.78 152.31 2069.67 153.33 C 2081.57 154.35 2094.81 156.84 2105.68 160.32 C 2116.55 163.80 2125.63 167.67 2135.23 172.77 C 2144.83 177.87 2152.68 182.51 2160.75 189.25 C 2168.82 195.99 2175.16 202.01 2181.92 210.08 C 2188.68 218.15 2194.50 226.61 2199.00 236.00
C 2189.00 241.73 2180.04 245.69 2170.25 252.25 C 2160.45 258.81 2151.10 261.22 2140.99 267.99 C 2130.89 274.77 2127.00 260.11 2119.25 251.75 C 2111.49 243.39 2103.89 237.88 2092.92 233.08 C 2081.96 228.27 2068.41 224.62 2055.98 224.02 C 2043.54 223.42 2026.07 224.36 2014.98 227.98 C 2003.89 231.59 1994.51 237.63 1986.75 245.75 C 1979.00 253.87 1973.11 266.51 1974.00 278.00 C 1974.89 289.49 1982.67 299.76 1992.23 305.77 C 2001.80 311.78 2011.47 317.39 2023.02 319.98 C 2034.58 322.56 2047.93 327.22 2060.00 329.00 C 2072.07 330.77 2084.41 335.18 2096.22 337.78 C 2108.03 340.38 2120.40 344.00 2131.23 348.77 C 2142.06 353.55 2152.60 356.08 2162.08 362.92 C 2171.57 369.76 2179.69 374.72 2187.25 383.75 C 2194.80 392.79 2198.71 401.74 2202.99 413.01 C 2207.28 424.27 2209.33 440.12 2209.00 453.00 C 2208.67 465.88 2207.15 480.39 2202.67 491.67 C 2198.20 502.95 2193.37 511.90 2186.23 521.23 C 2179.09 530.56 2172.51 536.23 2163.75 543.75 C 2155.00 551.27 2145.25 555.37 2134.92 560.92 C 2124.59 566.47 2113.67 569.43 2101.99 572.99 C 2090.31 576.55 2074.79 578.43 2062.00 579.00
M 1572.00 196.00 
C 1577.06 199.69 1581.97 204.73 1586.00 209.00
C 1605.33 229.50 1615.79 245.69 1625.98 273.03 C 1636.16 300.36 1641.08 330.92 1641.00 363.00 C 1640.92 395.08 1641.04 433.57 1641.00 467.00 C 1640.96 500.43 1641.03 538.18 1641.00 572.00
C 1612.67 572.00 1584.33 572.00 1556.00 572.00
C 1556.04 557.88 1555.95 544.16 1556.00 530.00 C 1556.05 515.84 1555.90 501.18 1556.00 487.00 C 1556.10 472.82 1555.80 458.10 1556.00 444.00 C 1556.20 429.90 1555.55 414.87 1556.00 401.00 C 1556.45 387.13 1555.44 372.03 1555.02 358.98 C 1554.61 345.93 1553.09 333.08 1549.22 321.78 C 1545.36 310.48 1542.63 300.81 1536.75 291.25 C 1530.87 281.70 1527.03 273.92 1518.75 266.25 C 1510.47 258.57 1504.34 252.18 1494.31 247.70 C 1484.27 243.21 1473.50 237.80 1462.00 237.00 C 1450.50 236.21 1432.49 234.99 1421.33 237.33 C 1410.17 239.67 1399.55 244.04 1390.25 249.25 C 1380.96 254.47 1373.91 260.66 1366.75 268.75 C 1359.60 276.84 1354.27 284.32 1349.23 294.23 C 1344.19 304.14 1341.01 314.51 1338.01 326.01 C 1335.00 337.51 1333.51 350.91 1333.00 364.00 C 1332.49 377.09 1333.25 393.26 1333.00 407.00 C 1332.75 420.74 1333.16 435.99 1333.00 450.00 C 1332.84 464.01 1333.17 478.94 1333.00 493.00 C 1332.83 507.06 1333.31 522.08 1333.00 536.00 C 1332.70 549.92 1334.15 564.21 1331.89 576.89
C 1323.58 580.59 1312.43 575.40 1304.00 577.00 C 1295.57 578.60 1284.86 576.16 1276.00 577.00 C 1267.14 577.84 1256.98 576.37 1248.00 577.00
C 1248.00 505.00 1248.00 433.00 1248.00 361.00
C 1245.60 330.75 1238.14 300.04 1219.25 275.75 C 1200.35 251.47 1174.24 237.66 1143.78 236.22 C 1113.32 234.79 1080.55 242.51 1060.25 267.25 C 1039.94 291.99 1030.03 314.99 1026.67 348.67 C 1023.31 382.35 1025.49 425.84 1025.00 462.00 C 1024.51 498.16 1025.37 540.30 1025.00 577.00
C 996.67 577.00 968.33 577.00 940.00 577.00
C 940.50 537.29 939.34 491.06 940.00 452.00 C 940.66 412.94 937.88 365.12 942.00 329.00 C 946.12 292.88 955.77 264.23 973.30 235.30 C 990.84 206.38 1009.59 191.92 1038.08 175.08 C 1066.57 158.24 1109.06 153.76 1143.00 155.00 C 1176.94 156.24 1210.35 167.27 1237.23 185.77 C 1264.11 204.27 1279.96 227.80 1292.00 257.00
C 1328.84 145.61 1489.86 123.91 1572.00 196.00
M 1813.00 572.00 
C 1805.58 575.59 1794.43 570.40 1786.00 572.00 C 1777.57 573.60 1766.86 571.16 1758.00 572.00 C 1749.14 572.84 1738.98 571.37 1730.00 572.00
C 1730.01 434.67 1730.00 297.33 1730.00 160.00
C 1757.66 160.00 1785.34 160.00 1813.00 160.00
C 1818.88 162.84 1813.71 179.27 1815.00 187.00 C 1816.29 194.73 1814.41 208.06 1815.00 217.00 C 1815.59 225.94 1814.73 237.57 1815.00 247.00 C 1815.27 256.43 1814.88 266.30 1815.00 276.00 C 1815.12 285.70 1814.95 296.15 1815.00 306.00 C 1815.05 315.85 1814.98 326.11 1815.00 336.00 C 1815.02 345.89 1815.00 356.14 1815.00 366.00 C 1815.00 375.86 1815.02 385.16 1815.00 395.00 C 1814.98 404.84 1815.06 415.18 1815.00 425.00 C 1814.94 434.82 1815.13 445.31 1815.00 455.00 C 1814.87 464.69 1815.29 474.57 1815.00 484.00 C 1814.71 493.43 1815.63 505.07 1815.00 514.00 C 1814.37 522.93 1816.39 536.29 1815.00 544.00 C 1813.61 551.71 1818.98 569.11 1813.00 572.00 Z"/>
</g>
<g fill="None" fill-opacity="0.0" stroke="#F1F1F1" stroke-opacity="0.97" stroke-width="0.3"><path d="
M 3155.00 732.00 
L 3161.00 732.00
C 3188.59 710.59 3216.00 693.65 3245.23 674.23 C 3274.46 654.80 3310.41 647.03 3340.25 627.25 C 3370.08 607.46 3390.50 585.27 3409.92 553.92 C 3429.34 522.57 3441.55 485.02 3444.00 446.00 C 3446.46 406.98 3450.10 354.42 3455.98 315.98 C 3461.86 277.53 3469.52 242.30 3497.00 214.00
L 3497.00 209.00
C 3479.63 195.40 3464.35 178.19 3447.00 165.00
C 3447.00 142.33 3447.00 119.67 3447.00 97.00
C 3345.24 107.03 3282.58 9.36 3187.00 0.00
L 3128.00 0.00
C 3031.95 9.09 2969.44 107.28 2867.00 97.00
C 2867.00 120.00 2867.00 143.00 2867.00 166.00
C 2855.73 173.35 2848.44 184.30 2837.75 192.75 C 2827.05 201.19 2812.92 210.05 2825.25 221.75 C 2837.58 233.46 2839.73 242.93 2845.68 257.32 C 2851.63 271.71 2853.08 286.62 2857.01 301.99 C 2860.93 317.37 2861.31 334.89 2864.00 351.00 C 2866.69 367.11 2865.70 386.70 2868.01 402.99 C 2870.31 419.28 2870.60 438.95 2872.00 455.00 C 2873.40 471.05 2877.03 487.30 2881.22 501.78 C 2885.41 516.25 2891.61 528.24 2898.08 540.92 C 2904.55 553.60 2911.57 563.97 2919.75 575.25 C 2927.93 586.53 2936.57 594.98 2946.25 604.75 C 2955.93 614.52 2966.60 621.81 2977.92 629.08 C 2989.24 636.35 3002.45 643.21 3015.32 647.68 C 3028.20 652.15 3042.43 658.02 3054.25 664.75 C 3066.08 671.47 3077.95 678.34 3089.25 685.75 C 3100.54 693.16 3110.66 701.23 3121.77 709.23 C 3132.88 717.23 3144.50 723.38 3155.00 732.00
M 3443.00 167.00 
C 3416.60 198.64 3401.23 229.15 3393.07 270.07 C 3384.91 310.99 3377.95 363.96 3377.00 407.00 C 3376.05 450.04 3366.68 491.86 3343.25 526.25 C 3319.82 560.64 3290.67 576.49 3253.92 589.92 C 3217.17 603.36 3189.88 626.86 3158.00 648.00
C 3125.31 627.64 3099.90 603.64 3062.77 590.23 C 3025.64 576.82 2996.87 561.62 2972.75 527.25 C 2948.62 492.89 2939.92 450.23 2939.00 407.00 C 2938.08 363.77 2929.91 311.96 2922.22 270.78 C 2914.53 229.60 2898.76 198.13 2872.00 167.00
C 2943.08 168.87 3005.16 141.71 3061.08 101.08 C 3117.00 60.45 3197.17 59.99 3253.23 100.77 C 3309.29 141.55 3371.83 169.14 3443.00 167.00 Z"/>
</g>
<g fill="None" fill-opacity="0.0" stroke="#000000" stroke-opacity="0.00" stroke-width="0.3"><path d="
M 3497.00 209.00 
L 3497.00 0.00
L 3187.00 0.00
C 3282.58 9.36 3345.24 107.03 3447.00 97.00
C 3447.00 119.67 3447.00 142.33 3447.00 165.00
C 3464.35 178.19 3479.63 195.40 3497.00 209.00 Z"/>
</g>
<g fill="None" fill-opacity="0.0" stroke="#000000" stroke-opacity="0.00" stroke-width="0.3"><path d="
M 3443.00 167.00 
C 3371.83 169.14 3309.29 141.55 3253.23 100.77 C 3197.17 59.99 3117.00 60.45 3061.08 101.08 C 3005.16 141.71 2943.08 168.87 2872.00 167.00
C 2898.76 198.13 2914.53 229.60 2922.22 270.78 C 2929.91 311.96 2938.08 363.77 2939.00 407.00 C 2939.92 450.23 2948.62 492.89 2972.75 527.25 C 2996.87 561.62 3025.64 576.82 3062.77 590.23 C 3099.90 603.64 3125.31 627.64 3158.00 648.00
C 3189.88 626.86 3217.17 603.36 3253.92 589.92 C 3290.67 576.49 3319.82 560.64 3343.25 526.25 C 3366.68 491.86 3376.05 450.04 3377.00 407.00 C 3377.95 363.96 3384.91 310.99 3393.07 270.07 C 3401.23 229.15 3416.60 198.64 3443.00 167.00
M 3227.00 235.00 
C 3299.36 242.00 3348.31 309.02 3341.00 381.00 C 3333.69 452.98 3268.06 504.62 3195.98 496.02 C 3123.89 487.43 3073.74 423.29 3081.00 351.00 C 3088.26 278.71 3154.13 227.95 3227.00 235.00
M 3058.00 495.00 
C 3053.53 498.13 3043.64 493.54 3038.00 495.00 C 3032.36 496.46 3024.13 494.24 3018.00 495.00 C 3011.87 495.76 3004.26 494.43 2998.00 495.00
C 2998.00 409.00 2998.00 323.00 2998.00 237.00
C 3017.99 237.00 3038.00 237.00 3058.00 237.00
C 3062.21 239.95 3057.83 251.34 3059.00 257.00 C 3060.17 262.66 3058.47 272.46 3059.00 279.00 C 3059.53 285.54 3058.75 294.11 3059.00 301.00 C 3059.25 307.89 3058.90 314.93 3059.00 322.00 C 3059.10 329.07 3058.96 336.83 3059.00 344.00 C 3059.04 351.17 3059.00 358.84 3059.00 366.00 C 3059.00 373.16 3059.05 379.86 3059.00 387.00 C 3058.95 394.14 3059.11 401.90 3059.00 409.00 C 3058.89 416.10 3059.26 424.11 3059.00 431.00 C 3058.74 437.89 3059.60 445.54 3059.00 452.00 C 3058.40 458.46 3060.28 468.36 3059.00 474.00 C 3057.72 479.64 3062.27 492.01 3058.00 495.00 Z"/>
</g>
<g fill="None" fill-opacity="0.0" stroke="#F1F1F1" stroke-opacity="0.59" stroke-width="0.3"><path d="
M 199.00 152.00 
C 208.75 152.94 220.84 151.97 229.00 151.00
C 219.22 150.08 208.07 151.12 199.00 152.00 Z"/>
</g>
<g fill="None" fill-opacity="0.0" stroke="#F1F1F1" stroke-opacity="0.98" stroke-width="0.3"><path d="
M 199.00 152.00 
C 148.29 156.91 99.56 175.31 63.77 211.77 C 27.98 248.23 6.68 293.02 0.00 343.00
L 0.00 389.00
C 10.34 489.33 94.45 572.02 195.00 580.00
C 205.70 579.37 218.35 578.97 229.00 580.00
C 242.64 579.43 259.49 577.56 271.99 573.99 C 284.50 570.43 296.73 567.05 307.77 561.77 C 318.82 556.50 328.28 550.62 337.92 543.92 C 347.55 537.22 355.57 530.11 363.75 521.75 C 371.92 513.38 378.56 504.27 385.08 495.08 C 391.59 485.88 401.92 472.06 389.23 466.77 C 376.54 461.48 369.75 455.23 358.08 449.92 C 346.40 444.62 338.62 437.74 327.00 433.00
C 322.80 442.29 316.74 451.94 309.75 459.75 C 302.76 467.56 295.47 473.75 286.70 479.70 C 277.93 485.64 269.41 490.65 258.67 494.67 C 247.93 498.69 233.79 499.09 222.00 501.00 C 210.22 502.92 196.20 499.50 185.01 496.99 C 173.82 494.49 163.42 490.93 154.03 484.97 C 144.63 479.02 136.92 474.81 128.75 467.25 C 120.59 459.69 115.05 452.55 109.08 443.92 C 103.11 435.29 97.57 426.63 93.98 416.02 C 90.38 405.42 86.51 393.59 85.00 382.00 C 83.49 370.41 83.29 353.23 86.02 342.02 C 88.76 330.82 91.90 319.30 96.25 309.25 C 100.59 299.20 106.41 291.22 112.75 282.75 C 119.09 274.27 125.33 267.76 133.75 260.75 C 142.17 253.75 150.10 249.04 159.92 243.92 C 169.75 238.81 181.04 235.56 192.33 233.33 C 203.62 231.10 220.39 229.96 231.93 232.07 C 243.46 234.19 255.50 236.88 265.77 241.23 C 276.04 245.58 284.06 251.19 292.75 257.25 C 301.45 263.31 307.21 271.63 314.23 278.77 C 321.25 285.91 323.81 302.31 334.25 296.25 C 344.70 290.20 350.36 285.92 361.31 280.31 C 372.25 274.69 377.00 270.50 389.25 265.25 C 401.51 260.01 392.64 249.12 386.77 240.23 C 380.90 231.34 375.27 223.86 368.00 216.00
C 363.95 213.38 357.46 206.99 355.00 203.00
C 347.68 191.10 332.92 185.19 321.08 176.92 C 309.23 168.65 293.36 164.87 279.22 159.78 C 265.08 154.68 244.47 152.45 229.00 151.00
C 220.84 151.97 208.75 152.94 199.00 152.00 Z"/>
</g>
<g fill="None" fill-opacity="0.0" stroke="#F1F1F1" stroke-opacity="0.98" stroke-width="0.3"><path d="
M 490.00 207.00 
C 485.82 213.46 477.16 222.99 470.00 228.00
C 393.93 312.16 408.34 453.01 488.75 528.25 C 569.16 603.49 715.27 601.02 777.00 503.00
C 779.33 524.68 777.33 548.50 778.00 571.00
C 804.67 571.00 831.33 571.00 858.00 571.00
C 858.34 540.49 857.55 507.24 858.00 477.00 C 858.45 446.76 857.14 412.24 858.00 383.00 C 858.85 353.76 855.74 324.16 847.98 299.02 C 840.21 273.89 831.17 256.21 816.30 236.70 C 801.44 217.18 789.37 204.00 769.75 190.25 C 750.12 176.51 729.52 166.78 706.07 159.93 C 682.63 153.07 646.37 148.52 621.01 151.01 C 595.64 153.49 566.87 158.51 545.70 169.70 C 524.53 180.88 504.73 188.08 490.00 207.00
M 652.00 230.00 
C 724.58 237.02 779.77 305.47 773.00 379.00 C 766.23 452.53 698.85 506.70 625.93 500.07 C 553.00 493.45 498.34 425.22 505.00 353.00 C 511.66 280.78 578.20 222.86 652.00 230.00 Z"/>
</g>
<g fill="None" fill-opacity="0.0" stroke="#F1F1F1" stroke-opacity="0.98" stroke-width="0.3"><path d="
M 2465.00 581.00 
C 2466.27 580.82 2470.55 578.29 2474.00 579.00 C 2477.45 579.71 2481.56 579.74 2485.00 579.00 C 2488.44 578.26 2492.76 580.85 2494.00 581.00
C 2547.78 576.82 2600.55 549.29 2629.00 502.00
C 2631.33 524.01 2629.34 548.17 2630.00 571.00
C 2656.67 571.00 2683.33 571.00 2710.00 571.00
C 2709.90 531.78 2710.13 485.51 2710.00 447.00 C 2709.87 408.49 2711.66 362.67 2706.33 327.67 C 2701.00 292.67 2689.71 266.39 2670.75 239.25 C 2651.80 212.11 2633.80 197.70 2606.23 180.77 C 2578.66 163.84 2545.02 153.88 2511.67 151.33 C 2478.32 148.78 2433.78 153.41 2404.23 166.23 C 2374.68 179.05 2354.24 193.34 2331.25 216.25 C 2308.26 239.15 2295.63 262.96 2283.93 292.93 C 2272.23 322.89 2269.25 368.90 2274.67 401.33 C 2280.10 433.76 2290.11 465.35 2308.25 491.75 C 2326.39 518.15 2344.88 534.90 2370.92 552.08 C 2396.97 569.25 2433.57 578.86 2465.00 581.00
M 2589.00 458.00 
C 2590.17 457.08 2591.42 455.90 2593.00 456.00
C 2588.82 460.99 2583.96 465.89 2579.00 470.00
C 2578.73 467.25 2582.29 466.32 2583.00 464.00
C 2551.77 490.68 2510.96 506.22 2469.98 499.02 C 2428.99 491.83 2400.67 472.11 2377.70 438.30 C 2354.72 404.49 2350.23 354.56 2365.31 317.31 C 2380.38 280.05 2403.77 255.51 2440.69 239.69 C 2477.62 223.88 2528.57 227.79 2562.23 250.77 C 2595.89 273.75 2615.44 302.39 2622.98 343.02 C 2630.51 383.66 2615.59 426.89 2589.00 458.00 Z"/>
</g>
<g fill="None" fill-opacity="0.0" stroke="#F1F1F1" stroke-opacity="0.97" stroke-width="0.3"><path d="
M 2030.00 579.00 
C 2040.06 578.03 2052.01 578.03 2062.00 579.00
C 2074.79 578.43 2090.31 576.55 2101.99 572.99 C 2113.67 569.43 2124.59 566.47 2134.92 560.92 C 2145.25 555.37 2155.00 551.27 2163.75 543.75 C 2172.51 536.23 2179.09 530.56 2186.23 521.23 C 2193.37 511.90 2198.20 502.95 2202.67 491.67 C 2207.15 480.39 2208.67 465.88 2209.00 453.00 C 2209.33 440.12 2207.28 424.27 2202.99 413.01 C 2198.71 401.74 2194.80 392.79 2187.25 383.75 C 2179.69 374.72 2171.57 369.76 2162.08 362.92 C 2152.60 356.08 2142.06 353.55 2131.23 348.77 C 2120.40 344.00 2108.03 340.38 2096.22 337.78 C 2084.41 335.18 2072.07 330.77 2060.00 329.00 C 2047.93 327.22 2034.58 322.56 2023.02 319.98 C 2011.47 317.39 2001.80 311.78 1992.23 305.77 C 1982.67 299.76 1974.89 289.49 1974.00 278.00 C 1973.11 266.51 1979.00 253.87 1986.75 245.75 C 1994.51 237.63 2003.89 231.59 2014.98 227.98 C 2026.07 224.36 2043.54 223.42 2055.98 224.02 C 2068.41 224.62 2081.96 228.27 2092.92 233.08 C 2103.89 237.88 2111.49 243.39 2119.25 251.75 C 2127.00 260.11 2130.89 274.77 2140.99 267.99 C 2151.10 261.22 2160.45 258.81 2170.25 252.25 C 2180.04 245.69 2189.00 241.73 2199.00 236.00
C 2194.50 226.61 2188.68 218.15 2181.92 210.08 C 2175.16 202.01 2168.82 195.99 2160.75 189.25 C 2152.68 182.51 2144.83 177.87 2135.23 172.77 C 2125.63 167.67 2116.55 163.80 2105.68 160.32 C 2094.81 156.84 2081.57 154.35 2069.67 153.33 C 2057.78 152.31 2041.23 150.88 2029.07 152.07 C 2016.91 153.26 2003.90 154.85 1992.68 157.68 C 1981.45 160.51 1972.11 164.69 1962.08 169.08 C 1952.04 173.46 1944.61 178.49 1936.08 185.08 C 1927.55 191.66 1920.79 197.60 1914.25 206.25 C 1907.71 214.89 1902.58 222.46 1898.92 232.92 C 1895.27 243.39 1890.21 254.16 1890.00 266.00 C 1889.79 277.84 1889.52 294.49 1892.67 305.33 C 1895.82 316.16 1899.18 326.85 1905.08 335.92 C 1910.98 344.99 1916.50 350.73 1924.77 358.23 C 1933.04 365.73 1941.79 368.39 1951.25 373.75 C 1960.72 379.10 1970.87 381.90 1981.32 385.68 C 1991.78 389.46 2003.83 391.74 2014.93 394.07 C 2026.03 396.41 2038.71 400.64 2050.00 402.00 C 2061.29 403.37 2072.31 408.27 2082.78 411.22 C 2093.25 414.17 2102.41 418.37 2110.75 425.25 C 2119.09 432.13 2124.85 442.33 2125.00 453.00 C 2125.15 463.67 2120.81 475.47 2113.75 483.75 C 2106.68 492.03 2097.89 495.72 2087.69 500.69 C 2077.50 505.67 2064.40 505.71 2052.67 507.67 C 2040.94 509.63 2025.30 506.08 2014.00 505.00 C 2002.70 503.92 1992.51 498.68 1982.70 494.30 C 1972.89 489.93 1966.86 480.98 1959.25 474.75 C 1951.64 468.52 1950.00 451.89 1940.03 454.03 C 1930.05 456.16 1922.86 465.13 1912.70 468.70 C 1902.53 472.26 1897.09 479.88 1886.07 484.07 C 1875.05 488.26 1884.48 499.43 1890.23 507.77 C 1895.98 516.11 1902.56 523.82 1910.08 530.92 C 1917.61 538.02 1923.91 544.61 1932.92 550.08 C 1941.92 555.55 1950.25 560.41 1960.32 564.68 C 1970.39 568.95 1981.33 571.54 1992.32 574.68 C 2003.32 577.82 2018.17 578.06 2030.00 579.00 Z"/>
</g>
<g fill="None" fill-opacity="0.0" stroke="#F1F1F1" stroke-opacity="0.98" stroke-width="0.3"><path d="
M 1248.00 361.00 
C 1251.05 370.27 1249.93 383.31 1250.00 395.00 C 1250.07 406.69 1249.97 419.13 1250.00 431.00 C 1250.03 442.87 1249.99 455.04 1250.00 467.00 C 1250.01 478.96 1249.99 490.97 1250.00 503.00 C 1250.01 515.03 1250.00 526.88 1250.00 539.00 C 1250.00 551.12 1250.00 563.82 1250.00 576.00
C 1276.83 576.67 1304.99 574.67 1331.00 577.00
C 1334.15 564.21 1332.70 549.92 1333.00 536.00 C 1333.31 522.08 1332.83 507.06 1333.00 493.00 C 1333.17 478.94 1332.84 464.01 1333.00 450.00 C 1333.16 435.99 1332.75 420.74 1333.00 407.00 C 1333.25 393.26 1332.49 377.09 1333.00 364.00 C 1333.51 350.91 1335.00 337.51 1338.01 326.01 C 1341.01 314.51 1344.19 304.14 1349.23 294.23 C 1354.27 284.32 1359.60 276.84 1366.75 268.75 C 1373.91 260.66 1380.96 254.47 1390.25 249.25 C 1399.55 244.04 1410.17 239.67 1421.33 237.33 C 1432.49 234.99 1450.50 236.21 1462.00 237.00 C 1473.50 237.80 1484.27 243.21 1494.31 247.70 C 1504.34 252.18 1510.47 258.57 1518.75 266.25 C 1527.03 273.92 1530.87 281.70 1536.75 291.25 C 1542.63 300.81 1545.36 310.48 1549.22 321.78 C 1553.09 333.08 1554.61 345.93 1555.02 358.98 C 1555.44 372.03 1556.45 387.13 1556.00 401.00 C 1555.55 414.87 1556.20 429.90 1556.00 444.00 C 1555.80 458.10 1556.10 472.82 1556.00 487.00 C 1555.90 501.18 1556.05 515.84 1556.00 530.00 C 1555.95 544.16 1556.04 557.88 1556.00 572.00
C 1584.33 572.00 1612.67 572.00 1641.00 572.00
C 1641.03 538.18 1640.96 500.43 1641.00 467.00 C 1641.04 433.57 1640.92 395.08 1641.00 363.00 C 1641.08 330.92 1636.16 300.36 1625.98 273.03 C 1615.79 245.69 1605.33 229.50 1586.00 209.00
C 1581.85 206.32 1574.74 199.66 1572.00 196.00
C 1489.86 123.91 1328.84 145.61 1292.00 257.00
C 1279.96 227.80 1264.11 204.27 1237.23 185.77 C 1210.35 167.27 1176.94 156.24 1143.00 155.00 C 1109.06 153.76 1066.57 158.24 1038.08 175.08 C 1009.59 191.92 990.84 206.38 973.30 235.30 C 955.77 264.23 946.12 292.88 942.00 329.00 C 937.88 365.12 940.66 412.94 940.00 452.00 C 939.34 491.06 940.50 537.29 940.00 577.00
C 968.33 577.00 996.67 577.00 1025.00 577.00
C 1025.37 540.30 1024.51 498.16 1025.00 462.00 C 1025.49 425.84 1023.31 382.35 1026.67 348.67 C 1030.03 314.99 1039.94 291.99 1060.25 267.25 C 1080.55 242.51 1113.32 234.79 1143.78 236.22 C 1174.24 237.66 1200.35 251.47 1219.25 275.75 C 1238.14 300.04 1245.60 330.75 1248.00 361.00 Z"/>
</g>
<g fill="None" fill-opacity="0.0" stroke="#F1F1F1" stroke-opacity="0.56" stroke-width="0.3"><path d="
M 1813.00 572.00 
C 1806.90 568.01 1796.75 570.49 1788.00 570.00 C 1779.25 569.51 1769.03 570.25 1760.00 570.00 C 1750.97 569.75 1741.10 570.19 1732.00 570.00
C 1732.00 434.00 1732.00 298.00 1732.00 162.00
C 1740.96 161.78 1750.05 162.29 1759.00 162.00 C 1767.95 161.71 1778.21 162.54 1787.00 162.00 C 1795.79 161.46 1806.78 164.04 1813.00 160.00
C 1785.34 160.00 1757.66 160.00 1730.00 160.00
C 1730.00 297.33 1730.01 434.67 1730.00 572.00
C 1738.98 571.37 1749.14 572.84 1758.00 572.00 C 1766.86 571.16 1777.57 573.60 1786.00 572.00 C 1794.43 570.40 1805.58 575.59 1813.00 572.00 Z"/>
</g>
<g fill="None" fill-opacity="0.0" stroke="#F1F1F1" stroke-opacity="0.98" stroke-width="0.3"><path d="
M 1813.00 572.00 
C 1818.98 569.11 1813.61 551.71 1815.00 544.00 C 1816.39 536.29 1814.37 522.93 1815.00 514.00 C 1815.63 505.07 1814.71 493.43 1815.00 484.00 C 1815.29 474.57 1814.87 464.69 1815.00 455.00 C 1815.13 445.31 1814.94 434.82 1815.00 425.00 C 1815.06 415.18 1814.98 404.84 1815.00 395.00 C 1815.02 385.16 1815.00 375.86 1815.00 366.00 C 1815.00 356.14 1815.02 345.89 1815.00 336.00 C 1814.98 326.11 1815.05 315.85 1815.00 306.00 C 1814.95 296.15 1815.12 285.70 1815.00 276.00 C 1814.88 266.30 1815.27 256.43 1815.00 247.00 C 1814.73 237.57 1815.59 225.94 1815.00 217.00 C 1814.41 208.06 1816.29 194.73 1815.00 187.00 C 1813.71 179.27 1818.88 162.84 1813.00 160.00
C 1806.78 164.04 1795.79 161.46 1787.00 162.00 C 1778.21 162.54 1767.95 161.71 1759.00 162.00 C 1750.05 162.29 1740.96 161.78 1732.00 162.00
C 1732.00 298.00 1732.00 434.00 1732.00 570.00
C 1741.10 570.19 1750.97 569.75 1760.00 570.00 C 1769.03 570.25 1779.25 569.51 1788.00 570.00 C 1796.75 570.49 1806.90 568.01 1813.00 572.00 Z"/>
</g>
<g fill="None" fill-opacity="0.0" stroke="#F3F3F3" stroke-opacity="0.36" stroke-width="0.3"><path d="
M 1586.00 209.00 
C 1581.97 204.73 1577.06 199.69 1572.00 196.00
C 1574.74 199.66 1581.85 206.32 1586.00 209.00 Z"/>
</g>
<g fill="None" fill-opacity="0.0" stroke="#F4F4F4" stroke-opacity="0.41" stroke-width="0.3"><path d="
M 368.00 216.00 
C 363.74 211.39 359.54 207.37 355.00 203.00
C 357.46 206.99 363.95 213.38 368.00 216.00 Z"/>
</g>
<g fill="None" fill-opacity="0.0" stroke="#F2F2F2" stroke-opacity="0.62" stroke-width="0.3"><path d="
M 489.00 208.00 
C 485.25 214.06 478.14 219.29 473.00 224.00
C 471.85 225.23 470.92 226.86 470.00 228.00
C 477.16 222.99 485.82 213.46 490.00 207.00
C 489.79 207.27 489.20 207.68 489.00 208.00 Z"/>
</g>
<g fill="None" fill-opacity="0.0" stroke="#F2F2F2" stroke-opacity="0.11" stroke-width="0.3"><path d="
M 473.00 224.00 
C 478.14 219.29 485.25 214.06 489.00 208.00
C 482.16 211.21 478.06 218.57 473.00 224.00 Z"/>
</g>
<g fill="None" fill-opacity="0.0" stroke="#000000" stroke-opacity="0.00" stroke-width="0.3"><path d="
M 3161.00 732.00 
L 3497.00 732.00
L 3497.00 214.00
C 3469.52 242.30 3461.86 277.53 3455.98 315.98 C 3450.10 354.42 3446.46 406.98 3444.00 446.00 C 3441.55 485.02 3429.34 522.57 3409.92 553.92 C 3390.50 585.27 3370.08 607.46 3340.25 627.25 C 3310.41 647.03 3274.46 654.80 3245.23 674.23 C 3216.00 693.65 3188.59 710.59 3161.00 732.00 Z"/>
</g>
<g fill="None" fill-opacity="0.0" stroke="#000000" stroke-opacity="0.00" stroke-width="0.3"><path d="
M 652.00 230.00 
C 578.20 222.86 511.66 280.78 505.00 353.00 C 498.34 425.22 553.00 493.45 625.93 500.07 C 698.85 506.70 766.23 452.53 773.00 379.00 C 779.77 305.47 724.58 237.02 652.00 230.00 Z"/>
</g>
<g fill="None" fill-opacity="0.0" stroke="#000000" stroke-opacity="0.00" stroke-width="0.3"><path d="
M 2583.00 464.00 
C 2585.22 462.10 2587.15 460.17 2589.00 458.00
C 2615.59 426.89 2630.51 383.66 2622.98 343.02 C 2615.44 302.39 2595.89 273.75 2562.23 250.77 C 2528.57 227.79 2477.62 223.88 2440.69 239.69 C 2403.77 255.51 2380.38 280.05 2365.31 317.31 C 2350.23 354.56 2354.72 404.49 2377.70 438.30 C 2400.67 472.11 2428.99 491.83 2469.98 499.02 C 2510.96 506.22 2551.77 490.68 2583.00 464.00 Z"/>
</g>
<g fill="None" fill-opacity="0.0" stroke="#F1F1F1" stroke-opacity="0.97" stroke-width="0.3"><path d="
M 3227.00 235.00 
C 3154.13 227.95 3088.26 278.71 3081.00 351.00 C 3073.74 423.29 3123.89 487.43 3195.98 496.02 C 3268.06 504.62 3333.69 452.98 3341.00 381.00 C 3348.31 309.02 3299.36 242.00 3227.00 235.00
M 3219.00 293.00 
C 3219.25 293.26 3219.00 294.00 3219.00 294.00
C 3256.43 297.29 3280.89 333.25 3279.22 369.22 C 3277.55 405.19 3249.30 439.17 3211.00 438.00 C 3172.70 436.83 3145.38 406.50 3143.00 369.00 C 3140.62 331.50 3167.56 302.32 3203.00 294.00
C 3206.44 292.75 3215.59 289.47 3219.00 293.00 Z"/>
</g>
<g fill="None" fill-opacity="0.0" stroke="#F2F2F2" stroke-opacity="0.53" stroke-width="0.3"><path d="
M 3058.00 495.00 
C 3039.57 492.67 3019.18 494.66 3000.00 494.00
C 3000.00 408.67 3000.00 323.33 3000.00 238.00
C 3019.16 237.33 3039.66 239.33 3058.00 237.00
C 3038.00 237.00 3017.99 237.00 2998.00 237.00
C 2998.00 323.00 2998.00 409.00 2998.00 495.00
C 3004.26 494.43 3011.87 495.76 3018.00 495.00 C 3024.13 494.24 3032.36 496.46 3038.00 495.00 C 3043.64 493.54 3053.53 498.13 3058.00 495.00 Z"/>
</g>
<g fill="None" fill-opacity="0.0" stroke="#F1F1F1" stroke-opacity="0.99" stroke-width="0.3"><path d="
M 3058.00 495.00 
C 3062.27 492.01 3057.72 479.64 3059.00 474.00 C 3060.28 468.36 3058.40 458.46 3059.00 452.00 C 3059.60 445.54 3058.74 437.89 3059.00 431.00 C 3059.26 424.11 3058.89 416.10 3059.00 409.00 C 3059.11 401.90 3058.95 394.14 3059.00 387.00 C 3059.05 379.86 3059.00 373.16 3059.00 366.00 C 3059.00 358.84 3059.04 351.17 3059.00 344.00 C 3058.96 336.83 3059.10 329.07 3059.00 322.00 C 3058.90 314.93 3059.25 307.89 3059.00 301.00 C 3058.75 294.11 3059.53 285.54 3059.00 279.00 C 3058.47 272.46 3060.17 262.66 3059.00 257.00 C 3057.83 251.34 3062.21 239.95 3058.00 237.00
C 3039.66 239.33 3019.16 237.33 3000.00 238.00
C 3000.00 323.33 3000.00 408.67 3000.00 494.00
C 3019.18 494.66 3039.57 492.67 3058.00 495.00 Z"/>
</g>
<g fill="None" fill-opacity="0.0" stroke="#F2F2F2" stroke-opacity="0.72" stroke-width="0.3"><path d="
M 3203.00 294.00 
C 3203.47 293.89 3204.50 294.00 3205.00 294.00
C 3208.63 292.46 3214.63 292.60 3219.00 293.00
C 3215.59 289.47 3206.44 292.75 3203.00 294.00 Z"/>
</g>
<g fill="None" fill-opacity="0.0" stroke="#F0F0F0" stroke-opacity="0.20" stroke-width="0.3"><path d="
M 3205.00 294.00 
C 3209.61 294.00 3214.41 293.60 3219.00 294.00
C 3219.00 294.00 3219.25 293.26 3219.00 293.00
C 3214.63 292.60 3208.63 292.46 3205.00 294.00 Z"/>
</g>
<g fill="None" fill-opacity="0.0" stroke="#000000" stroke-opacity="0.00" stroke-width="0.3"><path d="
M 3219.00 294.00 
C 3214.41 293.60 3209.61 294.00 3205.00 294.00
C 3204.50 294.00 3203.47 293.89 3203.00 294.00
C 3167.56 302.32 3140.62 331.50 3143.00 369.00 C 3145.38 406.50 3172.70 436.83 3211.00 438.00 C 3249.30 439.17 3277.55 405.19 3279.22 369.22 C 3280.89 333.25 3256.43 297.29 3219.00 294.00 Z"/>
</g>
<g fill="None" fill-opacity="0.0" stroke="#F2F2F2" stroke-opacity="0.54" stroke-width="0.3"><path d="
M 1331.00 577.00 
C 1304.99 574.67 1276.83 576.67 1250.00 576.00
C 1250.00 563.82 1250.00 551.12 1250.00 539.00 C 1250.00 526.88 1250.01 515.03 1250.00 503.00 C 1249.99 490.97 1250.01 478.96 1250.00 467.00 C 1249.99 455.04 1250.03 442.87 1250.00 431.00 C 1249.97 419.13 1250.07 406.69 1250.00 395.00 C 1249.93 383.31 1251.05 370.27 1248.00 361.00
C 1248.00 433.00 1248.00 505.00 1248.00 577.00
C 1256.98 576.37 1267.14 577.84 1276.00 577.00 C 1284.86 576.16 1295.57 578.60 1304.00 577.00 C 1312.43 575.40 1323.58 580.59 1331.00 577.00 Z"/>
</g>
<g fill="None" fill-opacity="0.0" stroke="#F1F1F1" stroke-opacity="0.53" stroke-width="0.3"><path d="
M 2589.00 458.00 
C 2587.15 460.17 2585.22 462.10 2583.00 464.00
C 2582.29 466.32 2578.73 467.25 2579.00 470.00
C 2583.96 465.89 2588.82 460.99 2593.00 456.00
C 2591.42 455.90 2590.17 457.08 2589.00 458.00 Z"/>
</g>
<g fill="None" fill-opacity="0.0" stroke="#F1F1F1" stroke-opacity="0.64" stroke-width="0.3"><path d="
M 2030.00 579.00 
C 2040.64 579.84 2051.36 579.72 2062.00 579.00
C 2052.01 578.03 2040.06 578.03 2030.00 579.00 Z"/>
</g>
<g fill="None" fill-opacity="0.0" stroke="#F2F2F2" stroke-opacity="0.54" stroke-width="0.3"><path d="
M 195.00 580.00 
C 206.37 580.90 217.68 580.77 229.00 580.00
C 218.35 578.97 205.70 579.37 195.00 580.00 Z"/>
</g>
<g fill="None" fill-opacity="0.0" stroke="#F1F1F1" stroke-opacity="0.68" stroke-width="0.3"><path d="
M 2465.00 581.00 
C 2474.26 581.63 2484.77 581.87 2494.00 581.00
C 2492.76 580.85 2488.44 578.26 2485.00 579.00 C 2481.56 579.74 2477.45 579.71 2474.00 579.00 C 2470.55 578.29 2466.27 580.82 2465.00 581.00 Z"/>
</g>
<g fill="#000000" fill-opacity="0.00" stroke="None">
<path d="
M 0.00 343.00 
C 6.68 293.02 27.98 248.23 63.77 211.77 C 99.56 175.31 148.29 156.91 199.00 152.00
C 208.07 151.12 219.22 150.08 229.00 151.00
C 244.47 152.45 265.08 154.68 279.22 159.78 C 293.36 164.87 309.23 168.65 321.08 176.92 C 332.92 185.19 347.68 191.10 355.00 203.00
C 359.54 207.37 363.74 211.39 368.00 216.00
C 375.27 223.86 380.90 231.34 386.77 240.23 C 392.64 249.12 401.51 260.01 389.25 265.25 C 377.00 270.50 372.25 274.69 361.31 280.31 C 350.36 285.92 344.70 290.20 334.25 296.25 C 323.81 302.31 321.25 285.91 314.23 278.77 C 307.21 271.63 301.45 263.31 292.75 257.25 C 284.06 251.19 276.04 245.58 265.77 241.23 C 255.50 236.88 243.46 234.19 231.93 232.07 C 220.39 229.96 203.62 231.10 192.33 233.33 C 181.04 235.56 169.75 238.81 159.92 243.92 C 150.10 249.04 142.17 253.75 133.75 260.75 C 125.33 267.76 119.09 274.27 112.75 282.75 C 106.41 291.22 100.59 299.20 96.25 309.25 C 91.90 319.30 88.76 330.82 86.02 342.02 C 83.29 353.23 83.49 370.41 85.00 382.00 C 86.51 393.59 90.38 405.42 93.98 416.02 C 97.57 426.63 103.11 435.29 109.08 443.92 C 115.05 452.55 120.59 459.69 128.75 467.25 C 136.92 474.81 144.63 479.02 154.03 484.97 C 163.42 490.93 173.82 494.49 185.01 496.99 C 196.20 499.50 210.22 502.92 222.00 501.00 C 233.79 499.09 247.93 498.69 258.67 494.67 C 269.41 490.65 277.93 485.64 286.70 479.70 C 295.47 473.75 302.76 467.56 309.75 459.75 C 316.74 451.94 322.80 442.29 327.00 433.00
C 338.62 437.74 346.40 444.62 358.08 449.92 C 369.75 455.23 376.54 461.48 389.23 466.77 C 401.92 472.06 391.59 485.88 385.08 495.08 C 378.56 504.27 371.92 513.38 363.75 521.75 C 355.57 530.11 347.55 537.22 337.92 543.92 C 328.28 550.62 318.82 556.50 307.77 561.77 C 296.73 567.05 284.50 570.43 271.99 573.99 C 259.49 577.56 242.64 579.43 229.00 580.00
C 217.68 580.77 206.37 580.90 195.00 580.00
C 94.45 572.02 10.34 489.33 0.00 389.00
L 0.00 732.00
L 3155.00 732.00
C 3144.50 723.38 3132.88 717.23 3121.77 709.23 C 3110.66 701.23 3100.54 693.16 3089.25 685.75 C 3077.95 678.34 3066.08 671.47 3054.25 664.75 C 3042.43 658.02 3028.20 652.15 3015.32 647.68 C 3002.45 643.21 2989.24 636.35 2977.92 629.08 C 2966.60 621.81 2955.93 614.52 2946.25 604.75 C 2936.57 594.98 2927.93 586.53 2919.75 575.25 C 2911.57 563.97 2904.55 553.60 2898.08 540.92 C 2891.61 528.24 2885.41 516.25 2881.22 501.78 C 2877.03 487.30 2873.40 471.05 2872.00 455.00 C 2870.60 438.95 2870.31 419.28 2868.01 402.99 C 2865.70 386.70 2866.69 367.11 2864.00 351.00 C 2861.31 334.89 2860.93 317.37 2857.01 301.99 C 2853.08 286.62 2851.63 271.71 2845.68 257.32 C 2839.73 242.93 2837.58 233.46 2825.25 221.75 C 2812.92 210.05 2827.05 201.19 2837.75 192.75 C 2848.44 184.30 2855.73 173.35 2867.00 166.00
C 2867.00 143.00 2867.00 120.00 2867.00 97.00
C 2969.44 107.28 3031.95 9.09 3128.00 0.00
L 0.00 0.00
L 0.00 343.00
M 470.00 228.00 
C 470.92 226.86 471.85 225.23 473.00 224.00
C 478.06 218.57 482.16 211.21 489.00 208.00
C 489.20 207.68 489.79 207.27 490.00 207.00
C 504.73 188.08 524.53 180.88 545.70 169.70 C 566.87 158.51 595.64 153.49 621.01 151.01 C 646.37 148.52 682.63 153.07 706.07 159.93 C 729.52 166.78 750.12 176.51 769.75 190.25 C 789.37 204.00 801.44 217.18 816.30 236.70 C 831.17 256.21 840.21 273.89 847.98 299.02 C 855.74 324.16 858.85 353.76 858.00 383.00 C 857.14 412.24 858.45 446.76 858.00 477.00 C 857.55 507.24 858.34 540.49 858.00 571.00
C 831.33 571.00 804.67 571.00 778.00 571.00
C 777.33 548.50 779.33 524.68 777.00 503.00
C 715.27 601.02 569.16 603.49 488.75 528.25 C 408.34 453.01 393.93 312.16 470.00 228.00
M 2494.00 581.00 
C 2484.77 581.87 2474.26 581.63 2465.00 581.00
C 2433.57 578.86 2396.97 569.25 2370.92 552.08 C 2344.88 534.90 2326.39 518.15 2308.25 491.75 C 2290.11 465.35 2280.10 433.76 2274.67 401.33 C 2269.25 368.90 2272.23 322.89 2283.93 292.93 C 2295.63 262.96 2308.26 239.15 2331.25 216.25 C 2354.24 193.34 2374.68 179.05 2404.23 166.23 C 2433.78 153.41 2478.32 148.78 2511.67 151.33 C 2545.02 153.88 2578.66 163.84 2606.23 180.77 C 2633.80 197.70 2651.80 212.11 2670.75 239.25 C 2689.71 266.39 2701.00 292.67 2706.33 327.67 C 2711.66 362.67 2709.87 408.49 2710.00 447.00 C 2710.13 485.51 2709.90 531.78 2710.00 571.00
C 2683.33 571.00 2656.67 571.00 2630.00 571.00
C 2629.34 548.17 2631.33 524.01 2629.00 502.00
C 2600.55 549.29 2547.78 576.82 2494.00 581.00
M 2062.00 579.00 
C 2051.36 579.72 2040.64 579.84 2030.00 579.00
C 2018.17 578.06 2003.32 577.82 1992.32 574.68 C 1981.33 571.54 1970.39 568.95 1960.32 564.68 C 1950.25 560.41 1941.92 555.55 1932.92 550.08 C 1923.91 544.61 1917.61 538.02 1910.08 530.92 C 1902.56 523.82 1895.98 516.11 1890.23 507.77 C 1884.48 499.43 1875.05 488.26 1886.07 484.07 C 1897.09 479.88 1902.53 472.26 1912.70 468.70 C 1922.86 465.13 1930.05 456.16 1940.03 454.03 C 1950.00 451.89 1951.64 468.52 1959.25 474.75 C 1966.86 480.98 1972.89 489.93 1982.70 494.30 C 1992.51 498.68 2002.70 503.92 2014.00 505.00 C 2025.30 506.08 2040.94 509.63 2052.67 507.67 C 2064.40 505.71 2077.50 505.67 2087.69 500.69 C 2097.89 495.72 2106.68 492.03 2113.75 483.75 C 2120.81 475.47 2125.15 463.67 2125.00 453.00 C 2124.85 442.33 2119.09 432.13 2110.75 425.25 C 2102.41 418.37 2093.25 414.17 2082.78 411.22 C 2072.31 408.27 2061.29 403.37 2050.00 402.00 C 2038.71 400.64 2026.03 396.41 2014.93 394.07 C 2003.83 391.74 1991.78 389.46 1981.32 385.68 C 1970.87 381.90 1960.72 379.10 1951.25 373.75 C 1941.79 368.39 1933.04 365.73 1924.77 358.23 C 1916.50 350.73 1910.98 344.99 1905.08 335.92 C 1899.18 326.85 1895.82 316.16 1892.67 305.33 C 1889.52 294.49 1889.79 277.84 1890.00 266.00 C 1890.21 254.16 1895.27 243.39 1898.92 232.92 C 1902.58 222.46 1907.71 214.89 1914.25 206.25 C 1920.79 197.60 1927.55 191.66 1936.08 185.08 C 1944.61 178.49 1952.04 173.46 1962.08 169.08 C 1972.11 164.69 1981.45 160.51 1992.68 157.68 C 2003.90 154.85 2016.91 153.26 2029.07 152.07 C 2041.23 150.88 2057.78 152.31 2069.67 153.33 C 2081.57 154.35 2094.81 156.84 2105.68 160.32 C 2116.55 163.80 2125.63 167.67 2135.23 172.77 C 2144.83 177.87 2152.68 182.51 2160.75 189.25 C 2168.82 195.99 2175.16 202.01 2181.92 210.08 C 2188.68 218.15 2194.50 226.61 2199.00 236.00
C 2189.00 241.73 2180.04 245.69 2170.25 252.25 C 2160.45 258.81 2151.10 261.22 2140.99 267.99 C 2130.89 274.77 2127.00 260.11 2119.25 251.75 C 2111.49 243.39 2103.89 237.88 2092.92 233.08 C 2081.96 228.27 2068.41 224.62 2055.98 224.02 C 2043.54 223.42 2026.07 224.36 2014.98 227.98 C 2003.89 231.59 1994.51 237.63 1986.75 245.75 C 1979.00 253.87 1973.11 266.51 1974.00 278.00 C 1974.89 289.49 1982.67 299.76 1992.23 305.77 C 2001.80 311.78 2011.47 317.39 2023.02 319.98 C 2034.58 322.56 2047.93 327.22 2060.00 329.00 C 2072.07 330.77 2084.41 335.18 2096.22 337.78 C 2108.03 340.38 2120.40 344.00 2131.23 348.77 C 2142.06 353.55 2152.60 356.08 2162.08 362.92 C 2171.57 369.76 2179.69 374.72 2187.25 383.75 C 2194.80 392.79 2198.71 401.74 2202.99 413.01 C 2207.28 424.27 2209.33 440.12 2209.00 453.00 C 2208.67 465.88 2207.15 480.39 2202.67 491.67 C 2198.20 502.95 2193.37 511.90 2186.23 521.23 C 2179.09 530.56 2172.51 536.23 2163.75 543.75 C 2155.00 551.27 2145.25 555.37 2134.92 560.92 C 2124.59 566.47 2113.67 569.43 2101.99 572.99 C 2090.31 576.55 2074.79 578.43 2062.00 579.00
M 1572.00 196.00 
C 1577.06 199.69 1581.97 204.73 1586.00 209.00
C 1605.33 229.50 1615.79 245.69 1625.98 273.03 C 1636.16 300.36 1641.08 330.92 1641.00 363.00 C 1640.92 395.08 1641.04 433.57 1641.00 467.00 C 1640.96 500.43 1641.03 538.18 1641.00 572.00
C 1612.67 572.00 1584.33 572.00 1556.00 572.00
C 1556.04 557.88 1555.95 544.16 1556.00 530.00 C 1556.05 515.84 1555.90 501.18 1556.00 487.00 C 1556.10 472.82 1555.80 458.10 1556.00 444.00 C 1556.20 429.90 1555.55 414.87 1556.00 401.00 C 1556.45 387.13 1555.44 372.03 1555.02 358.98 C 1554.61 345.93 1553.09 333.08 1549.22 321.78 C 1545.36 310.48 1542.63 300.81 1536.75 291.25 C 1530.87 281.70 1527.03 273.92 1518.75 266.25 C 1510.47 258.57 1504.34 252.18 1494.31 247.70 C 1484.27 243.21 1473.50 237.80 1462.00 237.00 C 1450.50 236.21 1432.49 234.99 1421.33 237.33 C 1410.17 239.67 1399.55 244.04 1390.25 249.25 C 1380.96 254.47 1373.91 260.66 1366.75 268.75 C 1359.60 276.84 1354.27 284.32 1349.23 294.23 C 1344.19 304.14 1341.01 314.51 1338.01 326.01 C 1335.00 337.51 1333.51 350.91 1333.00 364.00 C 1332.49 377.09 1333.25 393.26 1333.00 407.00 C 1332.75 420.74 1333.16 435.99 1333.00 450.00 C 1332.84 464.01 1333.17 478.94 1333.00 493.00 C 1332.83 507.06 1333.31 522.08 1333.00 536.00 C 1332.70 549.92 1334.15 564.21 1331.89 576.89
C 1323.58 580.59 1312.43 575.40 1304.00 577.00 C 1295.57 578.60 1284.86 576.16 1276.00 577.00 C 1267.14 577.84 1256.98 576.37 1248.00 577.00
C 1248.00 505.00 1248.00 433.00 1248.00 361.00
C 1245.60 330.75 1238.14 300.04 1219.25 275.75 C 1200.35 251.47 1174.24 237.66 1143.78 236.22 C 1113.32 234.79 1080.55 242.51 1060.25 267.25 C 1039.94 291.99 1030.03 314.99 1026.67 348.67 C 1023.31 382.35 1025.49 425.84 1025.00 462.00 C 1024.51 498.16 1025.37 540.30 1025.00 577.00
C 996.67 577.00 968.33 577.00 940.00 577.00
C 940.50 537.29 939.34 491.06 940.00 452.00 C 940.66 412.94 937.88 365.12 942.00 329.00 C 946.12 292.88 955.77 264.23 973.30 235.30 C 990.84 206.38 1009.59 191.92 1038.08 175.08 C 1066.57 158.24 1109.06 153.76 1143.00 155.00 C 1176.94 156.24 1210.35 167.27 1237.23 185.77 C 1264.11 204.27 1279.96 227.80 1292.00 257.00
C 1328.84 145.61 1489.86 123.91 1572.00 196.00
M 1813.00 572.00 
C 1805.58 575.59 1794.43 570.40 1786.00 572.00 C 1777.57 573.60 1766.86 571.16 1758.00 572.00 C 1749.14 572.84 1738.98 571.37 1730.00 572.00
C 1730.01 434.67 1730.00 297.33 1730.00 160.00
C 1757.66 160.00 1785.34 160.00 1813.00 160.00
C 1818.88 162.84 1813.71 179.27 1815.00 187.00 C 1816.29 194.73 1814.41 208.06 1815.00 217.00 C 1815.59 225.94 1814.73 237.57 1815.00 247.00 C 1815.27 256.43 1814.88 266.30 1815.00 276.00 C 1815.12 285.70 1814.95 296.15 1815.00 306.00 C 1815.05 315.85 1814.98 326.11 1815.00 336.00 C 1815.02 345.89 1815.00 356.14 1815.00 366.00 C 1815.00 375.86 1815.02 385.16 1815.00 395.00 C 1814.98 404.84 1815.06 415.18 1815.00 425.00 C 1814.94 434.82 1815.13 445.31 1815.00 455.00 C 1814.87 464.69 1815.29 474.57 1815.00 484.00 C 1814.71 493.43 1815.63 505.07 1815.00 514.00 C 1814.37 522.93 1816.39 536.29 1815.00 544.00 C 1813.61 551.71 1818.98 569.11 1813.00 572.00 Z"/>
</g>
<g fill="#F1F1F1" fill-opacity="0.97" stroke="None">
<path d="
M 3155.00 732.00 
L 3161.00 732.00
C 3188.59 710.59 3216.00 693.65 3245.23 674.23 C 3274.46 654.80 3310.41 647.03 3340.25 627.25 C 3370.08 607.46 3390.50 585.27 3409.92 553.92 C 3429.34 522.57 3441.55 485.02 3444.00 446.00 C 3446.46 406.98 3450.10 354.42 3455.98 315.98 C 3461.86 277.53 3469.52 242.30 3497.00 214.00
L 3497.00 209.00
C 3479.63 195.40 3464.35 178.19 3447.00 165.00
C 3447.00 142.33 3447.00 119.67 3447.00 97.00
C 3345.24 107.03 3282.58 9.36 3187.00 0.00
L 3128.00 0.00
C 3031.95 9.09 2969.44 107.28 2867.00 97.00
C 2867.00 120.00 2867.00 143.00 2867.00 166.00
C 2855.73 173.35 2848.44 184.30 2837.75 192.75 C 2827.05 201.19 2812.92 210.05 2825.25 221.75 C 2837.58 233.46 2839.73 242.93 2845.68 257.32 C 2851.63 271.71 2853.08 286.62 2857.01 301.99 C 2860.93 317.37 2861.31 334.89 2864.00 351.00 C 2866.69 367.11 2865.70 386.70 2868.01 402.99 C 2870.31 419.28 2870.60 438.95 2872.00 455.00 C 2873.40 471.05 2877.03 487.30 2881.22 501.78 C 2885.41 516.25 2891.61 528.24 2898.08 540.92 C 2904.55 553.60 2911.57 563.97 2919.75 575.25 C 2927.93 586.53 2936.57 594.98 2946.25 604.75 C 2955.93 614.52 2966.60 621.81 2977.92 629.08 C 2989.24 636.35 3002.45 643.21 3015.32 647.68 C 3028.20 652.15 3042.43 658.02 3054.25 664.75 C 3066.08 671.47 3077.95 678.34 3089.25 685.75 C 3100.54 693.16 3110.66 701.23 3121.77 709.23 C 3132.88 717.23 3144.50 723.38 3155.00 732.00
M 3443.00 167.00 
C 3416.60 198.64 3401.23 229.15 3393.07 270.07 C 3384.91 310.99 3377.95 363.96 3377.00 407.00 C 3376.05 450.04 3366.68 491.86 3343.25 526.25 C 3319.82 560.64 3290.67 576.49 3253.92 589.92 C 3217.17 603.36 3189.88 626.86 3158.00 648.00
C 3125.31 627.64 3099.90 603.64 3062.77 590.23 C 3025.64 576.82 2996.87 561.62 2972.75 527.25 C 2948.62 492.89 2939.92 450.23 2939.00 407.00 C 2938.08 363.77 2929.91 311.96 2922.22 270.78 C 2914.53 229.60 2898.76 198.13 2872.00 167.00
C 2943.08 168.87 3005.16 141.71 3061.08 101.08 C 3117.00 60.45 3197.17 59.99 3253.23 100.77 C 3309.29 141.55 3371.83 169.14 3443.00 167.00 Z"/>
</g>
<g fill="#000000" fill-opacity="0.00" stroke="None">
<path d="
M 3497.00 209.00 
L 3497.00 0.00
L 3187.00 0.00
C 3282.58 9.36 3345.24 107.03 3447.00 97.00
C 3447.00 119.67 3447.00 142.33 3447.00 165.00
C 3464.35 178.19 3479.63 195.40 3497.00 209.00 Z"/>
</g>
<g fill="#000000" fill-opacity="0.00" stroke="None">
<path d="
M 3443.00 167.00 
C 3371.83 169.14 3309.29 141.55 3253.23 100.77 C 3197.17 59.99 3117.00 60.45 3061.08 101.08 C 3005.16 141.71 2943.08 168.87 2872.00 167.00
C 2898.76 198.13 2914.53 229.60 2922.22 270.78 C 2929.91 311.96 2938.08 363.77 2939.00 407.00 C 2939.92 450.23 2948.62 492.89 2972.75 527.25 C 2996.87 561.62 3025.64 576.82 3062.77 590.23 C 3099.90 603.64 3125.31 627.64 3158.00 648.00
C 3189.88 626.86 3217.17 603.36 3253.92 589.92 C 3290.67 576.49 3319.82 560.64 3343.25 526.25 C 3366.68 491.86 3376.05 450.04 3377.00 407.00 C 3377.95 363.96 3384.91 310.99 3393.07 270.07 C 3401.23 229.15 3416.60 198.64 3443.00 167.00
M 3227.00 235.00 
C 3299.36 242.00 3348.31 309.02 3341.00 381.00 C 3333.69 452.98 3268.06 504.62 3195.98 496.02 C 3123.89 487.43 3073.74 423.29 3081.00 351.00 C 3088.26 278.71 3154.13 227.95 3227.00 235.00
M 3058.00 495.00 
C 3053.53 498.13 3043.64 493.54 3038.00 495.00 C 3032.36 496.46 3024.13 494.24 3018.00 495.00 C 3011.87 495.76 3004.26 494.43 2998.00 495.00
C 2998.00 409.00 2998.00 323.00 2998.00 237.00
C 3017.99 237.00 3038.00 237.00 3058.00 237.00
C 3062.21 239.95 3057.83 251.34 3059.00 257.00 C 3060.17 262.66 3058.47 272.46 3059.00 279.00 C 3059.53 285.54 3058.75 294.11 3059.00 301.00 C 3059.25 307.89 3058.90 314.93 3059.00 322.00 C 3059.10 329.07 3058.96 336.83 3059.00 344.00 C 3059.04 351.17 3059.00 358.84 3059.00 366.00 C 3059.00 373.16 3059.05 379.86 3059.00 387.00 C 3058.95 394.14 3059.11 401.90 3059.00 409.00 C 3058.89 416.10 3059.26 424.11 3059.00 431.00 C 3058.74 437.89 3059.60 445.54 3059.00 452.00 C 3058.40 458.46 3060.28 468.36 3059.00 474.00 C 3057.72 479.64 3062.27 492.01 3058.00 495.00 Z"/>
</g>
<g fill="#F1F1F1" fill-opacity="0.59" stroke="None">
<path d="
M 199.00 152.00 
C 208.75 152.94 220.84 151.97 229.00 151.00
C 219.22 150.08 208.07 151.12 199.00 152.00 Z"/>
</g>
<g fill="#F1F1F1" fill-opacity="0.98" stroke="None">
<path d="
M 199.00 152.00 
C 148.29 156.91 99.56 175.31 63.77 211.77 C 27.98 248.23 6.68 293.02 0.00 343.00
L 0.00 389.00
C 10.34 489.33 94.45 572.02 195.00 580.00
C 205.70 579.37 218.35 578.97 229.00 580.00
C 242.64 579.43 259.49 577.56 271.99 573.99 C 284.50 570.43 296.73 567.05 307.77 561.77 C 318.82 556.50 328.28 550.62 337.92 543.92 C 347.55 537.22 355.57 530.11 363.75 521.75 C 371.92 513.38 378.56 504.27 385.08 495.08 C 391.59 485.88 401.92 472.06 389.23 466.77 C 376.54 461.48 369.75 455.23 358.08 449.92 C 346.40 444.62 338.62 437.74 327.00 433.00
C 322.80 442.29 316.74 451.94 309.75 459.75 C 302.76 467.56 295.47 473.75 286.70 479.70 C 277.93 485.64 269.41 490.65 258.67 494.67 C 247.93 498.69 233.79 499.09 222.00 501.00 C 210.22 502.92 196.20 499.50 185.01 496.99 C 173.82 494.49 163.42 490.93 154.03 484.97 C 144.63 479.02 136.92 474.81 128.75 467.25 C 120.59 459.69 115.05 452.55 109.08 443.92 C 103.11 435.29 97.57 426.63 93.98 416.02 C 90.38 405.42 86.51 393.59 85.00 382.00 C 83.49 370.41 83.29 353.23 86.02 342.02 C 88.76 330.82 91.90 319.30 96.25 309.25 C 100.59 299.20 106.41 291.22 112.75 282.75 C 119.09 274.27 125.33 267.76 133.75 260.75 C 142.17 253.75 150.10 249.04 159.92 243.92 C 169.75 238.81 181.04 235.56 192.33 233.33 C 203.62 231.10 220.39 229.96 231.93 232.07 C 243.46 234.19 255.50 236.88 265.77 241.23 C 276.04 245.58 284.06 251.19 292.75 257.25 C 301.45 263.31 307.21 271.63 314.23 278.77 C 321.25 285.91 323.81 302.31 334.25 296.25 C 344.70 290.20 350.36 285.92 361.31 280.31 C 372.25 274.69 377.00 270.50 389.25 265.25 C 401.51 260.01 392.64 249.12 386.77 240.23 C 380.90 231.34 375.27 223.86 368.00 216.00
C 363.95 213.38 357.46 206.99 355.00 203.00
C 347.68 191.10 332.92 185.19 321.08 176.92 C 309.23 168.65 293.36 164.87 279.22 159.78 C 265.08 154.68 244.47 152.45 229.00 151.00
C 220.84 151.97 208.75 152.94 199.00 152.00 Z"/>
</g>
<g fill="#F1F1F1" fill-opacity="0.98" stroke="None">
<path d="
M 490.00 207.00 
C 485.82 213.46 477.16 222.99 470.00 228.00
C 393.93 312.16 408.34 453.01 488.75 528.25 C 569.16 603.49 715.27 601.02 777.00 503.00
C 779.33 524.68 777.33 548.50 778.00 571.00
C 804.67 571.00 831.33 571.00 858.00 571.00
C 858.34 540.49 857.55 507.24 858.00 477.00 C 858.45 446.76 857.14 412.24 858.00 383.00 C 858.85 353.76 855.74 324.16 847.98 299.02 C 840.21 273.89 831.17 256.21 816.30 236.70 C 801.44 217.18 789.37 204.00 769.75 190.25 C 750.12 176.51 729.52 166.78 706.07 159.93 C 682.63 153.07 646.37 148.52 621.01 151.01 C 595.64 153.49 566.87 158.51 545.70 169.70 C 524.53 180.88 504.73 188.08 490.00 207.00
M 652.00 230.00 
C 724.58 237.02 779.77 305.47 773.00 379.00 C 766.23 452.53 698.85 506.70 625.93 500.07 C 553.00 493.45 498.34 425.22 505.00 353.00 C 511.66 280.78 578.20 222.86 652.00 230.00 Z"/>
</g>
<g fill="#F1F1F1" fill-opacity="0.98" stroke="None">
<path d="
M 2465.00 581.00 
C 2466.27 580.82 2470.55 578.29 2474.00 579.00 C 2477.45 579.71 2481.56 579.74 2485.00 579.00 C 2488.44 578.26 2492.76 580.85 2494.00 581.00
C 2547.78 576.82 2600.55 549.29 2629.00 502.00
C 2631.33 524.01 2629.34 548.17 2630.00 571.00
C 2656.67 571.00 2683.33 571.00 2710.00 571.00
C 2709.90 531.78 2710.13 485.51 2710.00 447.00 C 2709.87 408.49 2711.66 362.67 2706.33 327.67 C 2701.00 292.67 2689.71 266.39 2670.75 239.25 C 2651.80 212.11 2633.80 197.70 2606.23 180.77 C 2578.66 163.84 2545.02 153.88 2511.67 151.33 C 2478.32 148.78 2433.78 153.41 2404.23 166.23 C 2374.68 179.05 2354.24 193.34 2331.25 216.25 C 2308.26 239.15 2295.63 262.96 2283.93 292.93 C 2272.23 322.89 2269.25 368.90 2274.67 401.33 C 2280.10 433.76 2290.11 465.35 2308.25 491.75 C 2326.39 518.15 2344.88 534.90 2370.92 552.08 C 2396.97 569.25 2433.57 578.86 2465.00 581.00
M 2589.00 458.00 
C 2590.17 457.08 2591.42 455.90 2593.00 456.00
C 2588.82 460.99 2583.96 465.89 2579.00 470.00
C 2578.73 467.25 2582.29 466.32 2583.00 464.00
C 2551.77 490.68 2510.96 506.22 2469.98 499.02 C 2428.99 491.83 2400.67 472.11 2377.70 438.30 C 2354.72 404.49 2350.23 354.56 2365.31 317.31 C 2380.38 280.05 2403.77 255.51 2440.69 239.69 C 2477.62 223.88 2528.57 227.79 2562.23 250.77 C 2595.89 273.75 2615.44 302.39 2622.98 343.02 C 2630.51 383.66 2615.59 426.89 2589.00 458.00 Z"/>
</g>
<g fill="#F1F1F1" fill-opacity="0.97" stroke="None">
<path d="
M 2030.00 579.00 
C 2040.06 578.03 2052.01 578.03 2062.00 579.00
C 2074.79 578.43 2090.31 576.55 2101.99 572.99 C 2113.67 569.43 2124.59 566.47 2134.92 560.92 C 2145.25 555.37 2155.00 551.27 2163.75 543.75 C 2172.51 536.23 2179.09 530.56 2186.23 521.23 C 2193.37 511.90 2198.20 502.95 2202.67 491.67 C 2207.15 480.39 2208.67 465.88 2209.00 453.00 C 2209.33 440.12 2207.28 424.27 2202.99 413.01 C 2198.71 401.74 2194.80 392.79 2187.25 383.75 C 2179.69 374.72 2171.57 369.76 2162.08 362.92 C 2152.60 356.08 2142.06 353.55 2131.23 348.77 C 2120.40 344.00 2108.03 340.38 2096.22 337.78 C 2084.41 335.18 2072.07 330.77 2060.00 329.00 C 2047.93 327.22 2034.58 322.56 2023.02 319.98 C 2011.47 317.39 2001.80 311.78 1992.23 305.77 C 1982.67 299.76 1974.89 289.49 1974.00 278.00 C 1973.11 266.51 1979.00 253.87 1986.75 245.75 C 1994.51 237.63 2003.89 231.59 2014.98 227.98 C 2026.07 224.36 2043.54 223.42 2055.98 224.02 C 2068.41 224.62 2081.96 228.27 2092.92 233.08 C 2103.89 237.88 2111.49 243.39 2119.25 251.75 C 2127.00 260.11 2130.89 274.77 2140.99 267.99 C 2151.10 261.22 2160.45 258.81 2170.25 252.25 C 2180.04 245.69 2189.00 241.73 2199.00 236.00
C 2194.50 226.61 2188.68 218.15 2181.92 210.08 C 2175.16 202.01 2168.82 195.99 2160.75 189.25 C 2152.68 182.51 2144.83 177.87 2135.23 172.77 C 2125.63 167.67 2116.55 163.80 2105.68 160.32 C 2094.81 156.84 2081.57 154.35 2069.67 153.33 C 2057.78 152.31 2041.23 150.88 2029.07 152.07 C 2016.91 153.26 2003.90 154.85 1992.68 157.68 C 1981.45 160.51 1972.11 164.69 1962.08 169.08 C 1952.04 173.46 1944.61 178.49 1936.08 185.08 C 1927.55 191.66 1920.79 197.60 1914.25 206.25 C 1907.71 214.89 1902.58 222.46 1898.92 232.92 C 1895.27 243.39 1890.21 254.16 1890.00 266.00 C 1889.79 277.84 1889.52 294.49 1892.67 305.33 C 1895.82 316.16 1899.18 326.85 1905.08 335.92 C 1910.98 344.99 1916.50 350.73 1924.77 358.23 C 1933.04 365.73 1941.79 368.39 1951.25 373.75 C 1960.72 379.10 1970.87 381.90 1981.32 385.68 C 1991.78 389.46 2003.83 391.74 2014.93 394.07 C 2026.03 396.41 2038.71 400.64 2050.00 402.00 C 2061.29 403.37 2072.31 408.27 2082.78 411.22 C 2093.25 414.17 2102.41 418.37 2110.75 425.25 C 2119.09 432.13 2124.85 442.33 2125.00 453.00 C 2125.15 463.67 2120.81 475.47 2113.75 483.75 C 2106.68 492.03 2097.89 495.72 2087.69 500.69 C 2077.50 505.67 2064.40 505.71 2052.67 507.67 C 2040.94 509.63 2025.30 506.08 2014.00 505.00 C 2002.70 503.92 1992.51 498.68 1982.70 494.30 C 1972.89 489.93 1966.86 480.98 1959.25 474.75 C 1951.64 468.52 1950.00 451.89 1940.03 454.03 C 1930.05 456.16 1922.86 465.13 1912.70 468.70 C 1902.53 472.26 1897.09 479.88 1886.07 484.07 C 1875.05 488.26 1884.48 499.43 1890.23 507.77 C 1895.98 516.11 1902.56 523.82 1910.08 530.92 C 1917.61 538.02 1923.91 544.61 1932.92 550.08 C 1941.92 555.55 1950.25 560.41 1960.32 564.68 C 1970.39 568.95 1981.33 571.54 1992.32 574.68 C 2003.32 577.82 2018.17 578.06 2030.00 579.00 Z"/>
</g>
<g fill="#F1F1F1" fill-opacity="0.98" stroke="None">
<path d="
M 1248.00 361.00 
C 1251.05 370.27 1249.93 383.31 1250.00 395.00 C 1250.07 406.69 1249.97 419.13 1250.00 431.00 C 1250.03 442.87 1249.99 455.04 1250.00 467.00 C 1250.01 478.96 1249.99 490.97 1250.00 503.00 C 1250.01 515.03 1250.00 526.88 1250.00 539.00 C 1250.00 551.12 1250.00 563.82 1250.00 576.00
C 1276.83 576.67 1304.99 574.67 1331.00 577.00
C 1334.15 564.21 1332.70 549.92 1333.00 536.00 C 1333.31 522.08 1332.83 507.06 1333.00 493.00 C 1333.17 478.94 1332.84 464.01 1333.00 450.00 C 1333.16 435.99 1332.75 420.74 1333.00 407.00 C 1333.25 393.26 1332.49 377.09 1333.00 364.00 C 1333.51 350.91 1335.00 337.51 1338.01 326.01 C 1341.01 314.51 1344.19 304.14 1349.23 294.23 C 1354.27 284.32 1359.60 276.84 1366.75 268.75 C 1373.91 260.66 1380.96 254.47 1390.25 249.25 C 1399.55 244.04 1410.17 239.67 1421.33 237.33 C 1432.49 234.99 1450.50 236.21 1462.00 237.00 C 1473.50 237.80 1484.27 243.21 1494.31 247.70 C 1504.34 252.18 1510.47 258.57 1518.75 266.25 C 1527.03 273.92 1530.87 281.70 1536.75 291.25 C 1542.63 300.81 1545.36 310.48 1549.22 321.78 C 1553.09 333.08 1554.61 345.93 1555.02 358.98 C 1555.44 372.03 1556.45 387.13 1556.00 401.00 C 1555.55 414.87 1556.20 429.90 1556.00 444.00 C 1555.80 458.10 1556.10 472.82 1556.00 487.00 C 1555.90 501.18 1556.05 515.84 1556.00 530.00 C 1555.95 544.16 1556.04 557.88 1556.00 572.00
C 1584.33 572.00 1612.67 572.00 1641.00 572.00
C 1641.03 538.18 1640.96 500.43 1641.00 467.00 C 1641.04 433.57 1640.92 395.08 1641.00 363.00 C 1641.08 330.92 1636.16 300.36 1625.98 273.03 C 1615.79 245.69 1605.33 229.50 1586.00 209.00
C 1581.85 206.32 1574.74 199.66 1572.00 196.00
C 1489.86 123.91 1328.84 145.61 1292.00 257.00
C 1279.96 227.80 1264.11 204.27 1237.23 185.77 C 1210.35 167.27 1176.94 156.24 1143.00 155.00 C 1109.06 153.76 1066.57 158.24 1038.08 175.08 C 1009.59 191.92 990.84 206.38 973.30 235.30 C 955.77 264.23 946.12 292.88 942.00 329.00 C 937.88 365.12 940.66 412.94 940.00 452.00 C 939.34 491.06 940.50 537.29 940.00 577.00
C 968.33 577.00 996.67 577.00 1025.00 577.00
C 1025.37 540.30 1024.51 498.16 1025.00 462.00 C 1025.49 425.84 1023.31 382.35 1026.67 348.67 C 1030.03 314.99 1039.94 291.99 1060.25 267.25 C 1080.55 242.51 1113.32 234.79 1143.78 236.22 C 1174.24 237.66 1200.35 251.47 1219.25 275.75 C 1238.14 300.04 1245.60 330.75 1248.00 361.00 Z"/>
</g>
<g fill="#F1F1F1" fill-opacity="0.56" stroke="None">
<path d="
M 1813.00 572.00 
C 1806.90 568.01 1796.75 570.49 1788.00 570.00 C 1779.25 569.51 1769.03 570.25 1760.00 570.00 C 1750.97 569.75 1741.10 570.19 1732.00 570.00
C 1732.00 434.00 1732.00 298.00 1732.00 162.00
C 1740.96 161.78 1750.05 162.29 1759.00 162.00 C 1767.95 161.71 1778.21 162.54 1787.00 162.00 C 1795.79 161.46 1806.78 164.04 1813.00 160.00
C 1785.34 160.00 1757.66 160.00 1730.00 160.00
C 1730.00 297.33 1730.01 434.67 1730.00 572.00
C 1738.98 571.37 1749.14 572.84 1758.00 572.00 C 1766.86 571.16 1777.57 573.60 1786.00 572.00 C 1794.43 570.40 1805.58 575.59 1813.00 572.00 Z"/>
</g>
<g fill="#F1F1F1" fill-opacity="0.98" stroke="None">
<path d="
M 1813.00 572.00 
C 1818.98 569.11 1813.61 551.71 1815.00 544.00 C 1816.39 536.29 1814.37 522.93 1815.00 514.00 C 1815.63 505.07 1814.71 493.43 1815.00 484.00 C 1815.29 474.57 1814.87 464.69 1815.00 455.00 C 1815.13 445.31 1814.94 434.82 1815.00 425.00 C 1815.06 415.18 1814.98 404.84 1815.00 395.00 C 1815.02 385.16 1815.00 375.86 1815.00 366.00 C 1815.00 356.14 1815.02 345.89 1815.00 336.00 C 1814.98 326.11 1815.05 315.85 1815.00 306.00 C 1814.95 296.15 1815.12 285.70 1815.00 276.00 C 1814.88 266.30 1815.27 256.43 1815.00 247.00 C 1814.73 237.57 1815.59 225.94 1815.00 217.00 C 1814.41 208.06 1816.29 194.73 1815.00 187.00 C 1813.71 179.27 1818.88 162.84 1813.00 160.00
C 1806.78 164.04 1795.79 161.46 1787.00 162.00 C 1778.21 162.54 1767.95 161.71 1759.00 162.00 C 1750.05 162.29 1740.96 161.78 1732.00 162.00
C 1732.00 298.00 1732.00 434.00 1732.00 570.00
C 1741.10 570.19 1750.97 569.75 1760.00 570.00 C 1769.03 570.25 1779.25 569.51 1788.00 570.00 C 1796.75 570.49 1806.90 568.01 1813.00 572.00 Z"/>
</g>
<g fill="#F3F3F3" fill-opacity="0.36" stroke="None">
<path d="
M 1586.00 209.00 
C 1581.97 204.73 1577.06 199.69 1572.00 196.00
C 1574.74 199.66 1581.85 206.32 1586.00 209.00 Z"/>
</g>
<g fill="#F4F4F4" fill-opacity="0.41" stroke="None">
<path d="
M 368.00 216.00 
C 363.74 211.39 359.54 207.37 355.00 203.00
C 357.46 206.99 363.95 213.38 368.00 216.00 Z"/>
</g>
<g fill="#F2F2F2" fill-opacity="0.62" stroke="None">
<path d="
M 489.00 208.00 
C 485.25 214.06 478.14 219.29 473.00 224.00
C 471.85 225.23 470.92 226.86 470.00 228.00
C 477.16 222.99 485.82 213.46 490.00 207.00
C 489.79 207.27 489.20 207.68 489.00 208.00 Z"/>
</g>
<g fill="#F2F2F2" fill-opacity="0.11" stroke="None">
<path d="
M 473.00 224.00 
C 478.14 219.29 485.25 214.06 489.00 208.00
C 482.16 211.21 478.06 218.57 473.00 224.00 Z"/>
</g>
<g fill="#000000" fill-opacity="0.00" stroke="None">
<path d="
M 3161.00 732.00 
L 3497.00 732.00
L 3497.00 214.00
C 3469.52 242.30 3461.86 277.53 3455.98 315.98 C 3450.10 354.42 3446.46 406.98 3444.00 446.00 C 3441.55 485.02 3429.34 522.57 3409.92 553.92 C 3390.50 585.27 3370.08 607.46 3340.25 627.25 C 3310.41 647.03 3274.46 654.80 3245.23 674.23 C 3216.00 693.65 3188.59 710.59 3161.00 732.00 Z"/>
</g>
<g fill="#000000" fill-opacity="0.00" stroke="None">
<path d="
M 652.00 230.00 
C 578.20 222.86 511.66 280.78 505.00 353.00 C 498.34 425.22 553.00 493.45 625.93 500.07 C 698.85 506.70 766.23 452.53 773.00 379.00 C 779.77 305.47 724.58 237.02 652.00 230.00 Z"/>
</g>
<g fill="#000000" fill-opacity="0.00" stroke="None">
<path d="
M 2583.00 464.00 
C 2585.22 462.10 2587.15 460.17 2589.00 458.00
C 2615.59 426.89 2630.51 383.66 2622.98 343.02 C 2615.44 302.39 2595.89 273.75 2562.23 250.77 C 2528.57 227.79 2477.62 223.88 2440.69 239.69 C 2403.77 255.51 2380.38 280.05 2365.31 317.31 C 2350.23 354.56 2354.72 404.49 2377.70 438.30 C 2400.67 472.11 2428.99 491.83 2469.98 499.02 C 2510.96 506.22 2551.77 490.68 2583.00 464.00 Z"/>
</g>
<g fill="#F1F1F1" fill-opacity="0.97" stroke="None">
<path d="
M 3227.00 235.00 
C 3154.13 227.95 3088.26 278.71 3081.00 351.00 C 3073.74 423.29 3123.89 487.43 3195.98 496.02 C 3268.06 504.62 3333.69 452.98 3341.00 381.00 C 3348.31 309.02 3299.36 242.00 3227.00 235.00
M 3219.00 293.00 
C 3219.25 293.26 3219.00 294.00 3219.00 294.00
C 3256.43 297.29 3280.89 333.25 3279.22 369.22 C 3277.55 405.19 3249.30 439.17 3211.00 438.00 C 3172.70 436.83 3145.38 406.50 3143.00 369.00 C 3140.62 331.50 3167.56 302.32 3203.00 294.00
C 3206.44 292.75 3215.59 289.47 3219.00 293.00 Z"/>
</g>
<g fill="#F2F2F2" fill-opacity="0.53" stroke="None">
<path d="
M 3058.00 495.00 
C 3039.57 492.67 3019.18 494.66 3000.00 494.00
C 3000.00 408.67 3000.00 323.33 3000.00 238.00
C 3019.16 237.33 3039.66 239.33 3058.00 237.00
C 3038.00 237.00 3017.99 237.00 2998.00 237.00
C 2998.00 323.00 2998.00 409.00 2998.00 495.00
C 3004.26 494.43 3011.87 495.76 3018.00 495.00 C 3024.13 494.24 3032.36 496.46 3038.00 495.00 C 3043.64 493.54 3053.53 498.13 3058.00 495.00 Z"/>
</g>
<g fill="#F1F1F1" fill-opacity="0.99" stroke="None">
<path d="
M 3058.00 495.00 
C 3062.27 492.01 3057.72 479.64 3059.00 474.00 C 3060.28 468.36 3058.40 458.46 3059.00 452.00 C 3059.60 445.54 3058.74 437.89 3059.00 431.00 C 3059.26 424.11 3058.89 416.10 3059.00 409.00 C 3059.11 401.90 3058.95 394.14 3059.00 387.00 C 3059.05 379.86 3059.00 373.16 3059.00 366.00 C 3059.00 358.84 3059.04 351.17 3059.00 344.00 C 3058.96 336.83 3059.10 329.07 3059.00 322.00 C 3058.90 314.93 3059.25 307.89 3059.00 301.00 C 3058.75 294.11 3059.53 285.54 3059.00 279.00 C 3058.47 272.46 3060.17 262.66 3059.00 257.00 C 3057.83 251.34 3062.21 239.95 3058.00 237.00
C 3039.66 239.33 3019.16 237.33 3000.00 238.00
C 3000.00 323.33 3000.00 408.67 3000.00 494.00
C 3019.18 494.66 3039.57 492.67 3058.00 495.00 Z"/>
</g>
<g fill="#F2F2F2" fill-opacity="0.72" stroke="None">
<path d="
M 3203.00 294.00 
C 3203.47 293.89 3204.50 294.00 3205.00 294.00
C 3208.63 292.46 3214.63 292.60 3219.00 293.00
C 3215.59 289.47 3206.44 292.75 3203.00 294.00 Z"/>
</g>
<g fill="#F0F0F0" fill-opacity="0.20" stroke="None">
<path d="
M 3205.00 294.00 
C 3209.61 294.00 3214.41 293.60 3219.00 294.00
C 3219.00 294.00 3219.25 293.26 3219.00 293.00
C 3214.63 292.60 3208.63 292.46 3205.00 294.00 Z"/>
</g>
<g fill="#000000" fill-opacity="0.00" stroke="None">
<path d="
M 3219.00 294.00 
C 3214.41 293.60 3209.61 294.00 3205.00 294.00
C 3204.50 294.00 3203.47 293.89 3203.00 294.00
C 3167.56 302.32 3140.62 331.50 3143.00 369.00 C 3145.38 406.50 3172.70 436.83 3211.00 438.00 C 3249.30 439.17 3277.55 405.19 3279.22 369.22 C 3280.89 333.25 3256.43 297.29 3219.00 294.00 Z"/>
</g>
<g fill="#F2F2F2" fill-opacity="0.54" stroke="None">
<path d="
M 1331.00 577.00 
C 1304.99 574.67 1276.83 576.67 1250.00 576.00
C 1250.00 563.82 1250.00 551.12 1250.00 539.00 C 1250.00 526.88 1250.01 515.03 1250.00 503.00 C 1249.99 490.97 1250.01 478.96 1250.00 467.00 C 1249.99 455.04 1250.03 442.87 1250.00 431.00 C 1249.97 419.13 1250.07 406.69 1250.00 395.00 C 1249.93 383.31 1251.05 370.27 1248.00 361.00
C 1248.00 433.00 1248.00 505.00 1248.00 577.00
C 1256.98 576.37 1267.14 577.84 1276.00 577.00 C 1284.86 576.16 1295.57 578.60 1304.00 577.00 C 1312.43 575.40 1323.58 580.59 1331.00 577.00 Z"/>
</g>
<g fill="#F1F1F1" fill-opacity="0.53" stroke="None">
<path d="
M 2589.00 458.00 
C 2587.15 460.17 2585.22 462.10 2583.00 464.00
C 2582.29 466.32 2578.73 467.25 2579.00 470.00
C 2583.96 465.89 2588.82 460.99 2593.00 456.00
C 2591.42 455.90 2590.17 457.08 2589.00 458.00 Z"/>
</g>
<g fill="#F1F1F1" fill-opacity="0.64" stroke="None">
<path d="
M 2030.00 579.00 
C 2040.64 579.84 2051.36 579.72 2062.00 579.00
C 2052.01 578.03 2040.06 578.03 2030.00 579.00 Z"/>
</g>
<g fill="#F2F2F2" fill-opacity="0.54" stroke="None">
<path d="
M 195.00 580.00 
C 206.37 580.90 217.68 580.77 229.00 580.00
C 218.35 578.97 205.70 579.37 195.00 580.00 Z"/>
</g>
<g fill="#F1F1F1" fill-opacity="0.68" stroke="None">
<path d="
M 2465.00 581.00 
C 2474.26 581.63 2484.77 581.87 2494.00 581.00
C 2492.76 580.85 2488.44 578.26 2485.00 579.00 C 2481.56 579.74 2477.45 579.71 2474.00 579.00 C 2470.55 578.29 2466.27 580.82 2465.00 581.00 Z"/>
</g>
</svg>